<svg xmlns="http://www.w3.org/2000/svg" xmlns:xlink="http://www.w3.org/1999/xlink" width="500" zoomAndPan="magnify" viewBox="0 0 375 374.999991" height="500" preserveAspectRatio="xMidYMid meet" version="1.2"><defs><clipPath id="c41117d73a"><path d="M 12.441406 12.441406 L 362.558594 12.441406 L 362.558594 362.558594 L 12.441406 362.558594 Z M 12.441406 12.441406 "/></clipPath><clipPath id="4713f34cb5"><path d="M 187.5 12.441406 C 90.816406 12.441406 12.441406 90.816406 12.441406 187.5 C 12.441406 284.183594 90.816406 362.558594 187.5 362.558594 C 284.183594 362.558594 362.558594 284.183594 362.558594 187.5 C 362.558594 90.816406 284.183594 12.441406 187.5 12.441406 Z M 187.5 12.441406 "/></clipPath></defs><g id="ec035f6886"><g clip-rule="nonzero" clip-path="url(#c41117d73a)"><g clip-rule="nonzero" clip-path="url(#4713f34cb5)"><path style=" stroke:none;fill-rule:nonzero;fill:#2c5894;fill-opacity:1;" d="M 12.441406 12.441406 L 362.558594 12.441406 L 362.558594 362.558594 L 12.441406 362.558594 Z M 12.441406 12.441406 "/></g></g><g style="fill:#000000;fill-opacity:1;"><g transform="translate(53.143104, 207.355157)"><path style="stroke:none" d="M 49.65625 -11.1875 C 38.5625 -1.28125 25.320312 3.671875 9.9375 3.671875 C 0.625 3.671875 -6.023438 1.703125 -10.015625 -2.234375 C -12.285156 -4.378906 -13.421875 -8.164062 -13.421875 -13.59375 C -13.421875 -21.945312 -7.066406 -27.347656 5.640625 -29.796875 C 9.628906 -30.566406 14.425781 -30.953125 20.03125 -30.953125 C 25.644531 -30.953125 33.3125 -29.910156 43.03125 -27.828125 C 48.226562 -33.609375 54.421875 -42.117188 61.609375 -53.359375 C 68.796875 -64.609375 74.476562 -73.273438 78.65625 -79.359375 C 82.832031 -85.453125 87.570312 -91.671875 92.875 -98.015625 C 98.1875 -104.367188 103.734375 -110.113281 109.515625 -115.25 C 121.265625 -125.75 132.898438 -131 144.421875 -131 C 149.546875 -131 153.238281 -129.695312 155.5 -127.09375 C 157.769531 -124.5 158.90625 -121.425781 158.90625 -117.875 C 158.90625 -114.332031 157.28125 -110.203125 154.03125 -105.484375 C 150.78125 -100.773438 147.019531 -96.601562 142.75 -92.96875 C 138.488281 -89.332031 134.285156 -86.242188 130.140625 -83.703125 C 125.992188 -81.171875 122.726562 -79.90625 120.34375 -79.90625 C 117.957031 -79.90625 115.898438 -80.914062 114.171875 -82.9375 C 112.441406 -84.96875 111.578125 -86.921875 111.578125 -88.796875 C 111.578125 -90.679688 111.828125 -91.992188 112.328125 -92.734375 C 112.835938 -93.484375 113.359375 -93.859375 113.890625 -93.859375 C 114.429688 -93.859375 114.765625 -93.53125 114.890625 -92.875 C 116.796875 -93.46875 119.851562 -95.332031 124.0625 -98.46875 C 128.269531 -101.601562 132.101562 -104.867188 135.5625 -108.265625 C 139.019531 -111.671875 140.75 -113.804688 140.75 -114.671875 C 140.75 -115.535156 140.222656 -115.96875 139.171875 -115.96875 C 138.128906 -115.96875 136.710938 -115.609375 134.921875 -114.890625 C 133.140625 -114.171875 130.753906 -112.691406 127.765625 -110.453125 C 124.785156 -108.222656 121.566406 -105.347656 118.109375 -101.828125 C 109.753906 -93.472656 100.445312 -81.628906 90.1875 -66.296875 C 87.800781 -62.835938 84.429688 -57.800781 80.078125 -51.1875 C 71.191406 -37.757812 64.84375 -28.570312 61.03125 -23.625 C 91.625 -15.570312 113.484375 -11.546875 126.609375 -11.546875 C 132.691406 -11.546875 136.957031 -12.320312 139.40625 -13.875 C 140.300781 -14.40625 140.894531 -14.671875 141.1875 -14.671875 C 141.488281 -14.671875 141.640625 -14.429688 141.640625 -13.953125 C 141.640625 -13.484375 141.367188 -12.769531 140.828125 -11.8125 C 140.296875 -10.851562 138.96875 -8.820312 136.84375 -5.71875 C 134.726562 -2.625 133.164062 -0.773438 132.15625 -0.171875 C 129.238281 1.554688 124.273438 2.421875 117.265625 2.421875 C 110.253906 2.421875 103.570312 1.910156 97.21875 0.890625 C 90.863281 -0.117188 85.75 -1.113281 81.875 -2.09375 C 78 -3.082031 72.253906 -4.679688 64.640625 -6.890625 C 57.035156 -9.097656 52.039062 -10.53125 49.65625 -11.1875 Z M 17 -16.640625 C 9.1875 -16.640625 5.28125 -15.71875 5.28125 -13.875 C 5.28125 -13.15625 5.953125 -12.523438 7.296875 -11.984375 C 8.640625 -11.453125 10.234375 -11.1875 12.078125 -11.1875 C 17.867188 -11.1875 23.445312 -12.707031 28.8125 -15.75 C 24.21875 -16.34375 20.28125 -16.640625 17 -16.640625 Z M 17 -16.640625 "/></g></g><g style="fill:#ffffff;fill-opacity:1;"><g transform="translate(55.428011, 214.672035)"><path style="stroke:none" d="M 49.65625 -11.1875 C 38.5625 -1.28125 25.320312 3.671875 9.9375 3.671875 C 0.625 3.671875 -6.023438 1.703125 -10.015625 -2.234375 C -12.285156 -4.378906 -13.421875 -8.164062 -13.421875 -13.59375 C -13.421875 -21.945312 -7.066406 -27.347656 5.640625 -29.796875 C 9.628906 -30.566406 14.425781 -30.953125 20.03125 -30.953125 C 25.644531 -30.953125 33.3125 -29.910156 43.03125 -27.828125 C 48.226562 -33.609375 54.421875 -42.117188 61.609375 -53.359375 C 68.796875 -64.609375 74.476562 -73.273438 78.65625 -79.359375 C 82.832031 -85.453125 87.570312 -91.671875 92.875 -98.015625 C 98.1875 -104.367188 103.734375 -110.113281 109.515625 -115.25 C 121.265625 -125.75 132.898438 -131 144.421875 -131 C 149.546875 -131 153.238281 -129.695312 155.5 -127.09375 C 157.769531 -124.5 158.90625 -121.425781 158.90625 -117.875 C 158.90625 -114.332031 157.28125 -110.203125 154.03125 -105.484375 C 150.78125 -100.773438 147.019531 -96.601562 142.75 -92.96875 C 138.488281 -89.332031 134.285156 -86.242188 130.140625 -83.703125 C 125.992188 -81.171875 122.726562 -79.90625 120.34375 -79.90625 C 117.957031 -79.90625 115.898438 -80.914062 114.171875 -82.9375 C 112.441406 -84.96875 111.578125 -86.921875 111.578125 -88.796875 C 111.578125 -90.679688 111.828125 -91.992188 112.328125 -92.734375 C 112.835938 -93.484375 113.359375 -93.859375 113.890625 -93.859375 C 114.429688 -93.859375 114.765625 -93.53125 114.890625 -92.875 C 116.796875 -93.46875 119.851562 -95.332031 124.0625 -98.46875 C 128.269531 -101.601562 132.101562 -104.867188 135.5625 -108.265625 C 139.019531 -111.671875 140.75 -113.804688 140.75 -114.671875 C 140.75 -115.535156 140.222656 -115.96875 139.171875 -115.96875 C 138.128906 -115.96875 136.710938 -115.609375 134.921875 -114.890625 C 133.140625 -114.171875 130.753906 -112.691406 127.765625 -110.453125 C 124.785156 -108.222656 121.566406 -105.347656 118.109375 -101.828125 C 109.753906 -93.472656 100.445312 -81.628906 90.1875 -66.296875 C 87.800781 -62.835938 84.429688 -57.800781 80.078125 -51.1875 C 71.191406 -37.757812 64.84375 -28.570312 61.03125 -23.625 C 91.625 -15.570312 113.484375 -11.546875 126.609375 -11.546875 C 132.691406 -11.546875 136.957031 -12.320312 139.40625 -13.875 C 140.300781 -14.40625 140.894531 -14.671875 141.1875 -14.671875 C 141.488281 -14.671875 141.640625 -14.429688 141.640625 -13.953125 C 141.640625 -13.484375 141.367188 -12.769531 140.828125 -11.8125 C 140.296875 -10.851562 138.96875 -8.820312 136.84375 -5.71875 C 134.726562 -2.625 133.164062 -0.773438 132.15625 -0.171875 C 129.238281 1.554688 124.273438 2.421875 117.265625 2.421875 C 110.253906 2.421875 103.570312 1.910156 97.21875 0.890625 C 90.863281 -0.117188 85.75 -1.113281 81.875 -2.09375 C 78 -3.082031 72.253906 -4.679688 64.640625 -6.890625 C 57.035156 -9.097656 52.039062 -10.53125 49.65625 -11.1875 Z M 17 -16.640625 C 9.1875 -16.640625 5.28125 -15.71875 5.28125 -13.875 C 5.28125 -13.15625 5.953125 -12.523438 7.296875 -11.984375 C 8.640625 -11.453125 10.234375 -11.1875 12.078125 -11.1875 C 17.867188 -11.1875 23.445312 -12.707031 28.8125 -15.75 C 24.21875 -16.34375 20.28125 -16.640625 17 -16.640625 Z M 17 -16.640625 "/></g></g><g style="fill:#000000;fill-opacity:1;"><g transform="translate(146.791983, 288.11136)"><path style="stroke:none" d="M 174.578125 -127.6875 L 175.734375 -127.6875 C 176.085938 -127.6875 176.3125 -127.65625 176.40625 -127.59375 C 176.5 -127.53125 176.617188 -127.484375 176.765625 -127.453125 C 176.910156 -127.429688 177.046875 -127.359375 177.171875 -127.234375 C 177.460938 -126.992188 177.878906 -126.726562 178.421875 -126.4375 C 179.128906 -125.894531 179.484375 -125.265625 179.484375 -124.546875 C 179.484375 -123.835938 178.78125 -122.363281 177.375 -120.125 C 175.976562 -117.882812 172.390625 -112.320312 166.609375 -103.4375 C 153.242188 -82.976562 141.285156 -64.007812 130.734375 -46.53125 C 112.472656 -16.164062 103.253906 -0.894531 103.078125 -0.71875 C 102.898438 -0.539062 102.78125 -0.359375 102.71875 -0.171875 C 102.65625 0.179688 102.414062 0.359375 102 0.359375 L 100.75 0.09375 L 98.328125 0.71875 L 96.90625 0.453125 L 95.390625 0.71875 L 94.84375 0.71875 L 89.828125 1.4375 C 86.847656 1.4375 85.359375 0.421875 85.359375 -1.609375 C 85.359375 -2.441406 85.628906 -3.488281 86.171875 -4.75 C 88.015625 -9.101562 97.316406 -24.9375 114.078125 -52.25 C 103.046875 -51.957031 92.160156 -51.8125 81.421875 -51.8125 L 62.1875 -51.890625 C 59.019531 -46.828125 54.695312 -39.640625 49.21875 -30.328125 C 37.34375 -10.046875 31.015625 0.195312 30.234375 0.40625 C 29.460938 0.613281 28.835938 0.71875 28.359375 0.71875 C 27.890625 0.71875 27.441406 0.4375 27.015625 -0.125 C 26.597656 -0.695312 26.316406 -0.984375 26.171875 -0.984375 C 26.023438 -0.984375 25.710938 -0.863281 25.234375 -0.625 C 24.753906 -0.382812 24.066406 -0.265625 23.171875 -0.265625 L 21.109375 -0.359375 L 20.3125 -0.890625 C 20.25 -0.890625 20.171875 -0.800781 20.078125 -0.625 C 19.992188 -0.445312 19.773438 -0.359375 19.421875 -0.359375 C 16.847656 -0.359375 15.5625 -1.429688 15.5625 -3.578125 C 15.5625 -5.015625 16.066406 -6.894531 17.078125 -9.21875 C 18.097656 -11.539062 19.425781 -14.070312 21.0625 -16.8125 C 22.707031 -19.5625 26.941406 -26.050781 33.765625 -36.28125 C 40.597656 -46.507812 44.015625 -51.65625 44.015625 -51.71875 C 42.890625 -51.78125 41.582031 -51.835938 40.09375 -51.890625 C 37.039062 -51.890625 34.890625 -52.007812 33.640625 -52.25 C 30.242188 -52.851562 27.921875 -55.660156 26.671875 -60.671875 C 26.015625 -63.109375 25.710938 -64.71875 25.765625 -65.5 C 25.765625 -67.101562 26.453125 -67.90625 27.828125 -67.90625 L 30.15625 -67.28125 C 31.34375 -67.226562 34.203125 -67.082031 38.734375 -66.84375 C 43.273438 -66.601562 46.53125 -66.484375 48.5 -66.484375 L 53.59375 -66.65625 C 61.351562 -78.832031 70.628906 -92.582031 81.421875 -107.90625 C 73.546875 -101.46875 64.804688 -98.25 55.203125 -98.25 C 50.671875 -98.25 46.765625 -99.335938 43.484375 -101.515625 C 40.203125 -103.691406 38.5625 -106.445312 38.5625 -109.78125 C 38.5625 -113.125 39.8125 -115.765625 42.3125 -117.703125 C 44.820312 -119.640625 47.207031 -120.609375 49.46875 -120.609375 C 51.738281 -120.609375 52.875 -120.253906 52.875 -119.546875 C 52.875 -119.304688 52.5625 -119.035156 51.9375 -118.734375 C 51.3125 -118.441406 51 -118.144531 51 -117.84375 C 51 -116.882812 52.039062 -116.03125 54.125 -115.28125 C 56.21875 -114.539062 58.5625 -114.171875 61.15625 -114.171875 C 63.75 -114.171875 66.953125 -114.929688 70.765625 -116.453125 C 74.585938 -117.972656 78.554688 -119.925781 82.671875 -122.3125 C 88.398438 -125.65625 92.9375 -128.429688 96.28125 -130.640625 C 98.1875 -131.585938 99.972656 -132.0625 101.640625 -132.0625 C 103.316406 -132.0625 104.523438 -131.867188 105.265625 -131.484375 C 106.015625 -131.097656 106.566406 -130.710938 106.921875 -130.328125 C 107.285156 -129.941406 107.675781 -129.429688 108.09375 -128.796875 C 108.507812 -128.171875 108.910156 -127.691406 109.296875 -127.359375 C 109.679688 -127.035156 109.875 -126.664062 109.875 -126.25 C 109.875 -125.832031 109.648438 -125.175781 109.203125 -124.28125 C 108.753906 -123.382812 106.472656 -119.757812 102.359375 -113.40625 C 98.242188 -107.0625 92.945312 -98.953125 86.46875 -89.078125 C 80 -79.203125 75.273438 -71.9375 72.296875 -67.28125 C 88.222656 -67.28125 105.429688 -67.582031 123.921875 -68.1875 C 146.410156 -103.675781 158.28125 -122.285156 159.53125 -124.015625 C 160.789062 -125.742188 161.925781 -126.875 162.9375 -127.40625 C 163.945312 -127.945312 165.203125 -128.21875 166.703125 -128.21875 Z M 174.578125 -127.6875 "/></g></g><g style="fill:#ffffff;fill-opacity:1;"><g transform="translate(152.46919, 294.387682)"><path style="stroke:none" d="M 174.578125 -127.6875 L 175.734375 -127.6875 C 176.085938 -127.6875 176.3125 -127.65625 176.40625 -127.59375 C 176.5 -127.53125 176.617188 -127.484375 176.765625 -127.453125 C 176.910156 -127.429688 177.046875 -127.359375 177.171875 -127.234375 C 177.460938 -126.992188 177.878906 -126.726562 178.421875 -126.4375 C 179.128906 -125.894531 179.484375 -125.265625 179.484375 -124.546875 C 179.484375 -123.835938 178.78125 -122.363281 177.375 -120.125 C 175.976562 -117.882812 172.390625 -112.320312 166.609375 -103.4375 C 153.242188 -82.976562 141.285156 -64.007812 130.734375 -46.53125 C 112.472656 -16.164062 103.253906 -0.894531 103.078125 -0.71875 C 102.898438 -0.539062 102.78125 -0.359375 102.71875 -0.171875 C 102.65625 0.179688 102.414062 0.359375 102 0.359375 L 100.75 0.09375 L 98.328125 0.71875 L 96.90625 0.453125 L 95.390625 0.71875 L 94.84375 0.71875 L 89.828125 1.4375 C 86.847656 1.4375 85.359375 0.421875 85.359375 -1.609375 C 85.359375 -2.441406 85.628906 -3.488281 86.171875 -4.75 C 88.015625 -9.101562 97.316406 -24.9375 114.078125 -52.25 C 103.046875 -51.957031 92.160156 -51.8125 81.421875 -51.8125 L 62.1875 -51.890625 C 59.019531 -46.828125 54.695312 -39.640625 49.21875 -30.328125 C 37.34375 -10.046875 31.015625 0.195312 30.234375 0.40625 C 29.460938 0.613281 28.835938 0.71875 28.359375 0.71875 C 27.890625 0.71875 27.441406 0.4375 27.015625 -0.125 C 26.597656 -0.695312 26.316406 -0.984375 26.171875 -0.984375 C 26.023438 -0.984375 25.710938 -0.863281 25.234375 -0.625 C 24.753906 -0.382812 24.066406 -0.265625 23.171875 -0.265625 L 21.109375 -0.359375 L 20.3125 -0.890625 C 20.25 -0.890625 20.171875 -0.800781 20.078125 -0.625 C 19.992188 -0.445312 19.773438 -0.359375 19.421875 -0.359375 C 16.847656 -0.359375 15.5625 -1.429688 15.5625 -3.578125 C 15.5625 -5.015625 16.066406 -6.894531 17.078125 -9.21875 C 18.097656 -11.539062 19.425781 -14.070312 21.0625 -16.8125 C 22.707031 -19.5625 26.941406 -26.050781 33.765625 -36.28125 C 40.597656 -46.507812 44.015625 -51.65625 44.015625 -51.71875 C 42.890625 -51.78125 41.582031 -51.835938 40.09375 -51.890625 C 37.039062 -51.890625 34.890625 -52.007812 33.640625 -52.25 C 30.242188 -52.851562 27.921875 -55.660156 26.671875 -60.671875 C 26.015625 -63.109375 25.710938 -64.71875 25.765625 -65.5 C 25.765625 -67.101562 26.453125 -67.90625 27.828125 -67.90625 L 30.15625 -67.28125 C 31.34375 -67.226562 34.203125 -67.082031 38.734375 -66.84375 C 43.273438 -66.601562 46.53125 -66.484375 48.5 -66.484375 L 53.59375 -66.65625 C 61.351562 -78.832031 70.628906 -92.582031 81.421875 -107.90625 C 73.546875 -101.46875 64.804688 -98.25 55.203125 -98.25 C 50.671875 -98.25 46.765625 -99.335938 43.484375 -101.515625 C 40.203125 -103.691406 38.5625 -106.445312 38.5625 -109.78125 C 38.5625 -113.125 39.8125 -115.765625 42.3125 -117.703125 C 44.820312 -119.640625 47.207031 -120.609375 49.46875 -120.609375 C 51.738281 -120.609375 52.875 -120.253906 52.875 -119.546875 C 52.875 -119.304688 52.5625 -119.035156 51.9375 -118.734375 C 51.3125 -118.441406 51 -118.144531 51 -117.84375 C 51 -116.882812 52.039062 -116.03125 54.125 -115.28125 C 56.21875 -114.539062 58.5625 -114.171875 61.15625 -114.171875 C 63.75 -114.171875 66.953125 -114.929688 70.765625 -116.453125 C 74.585938 -117.972656 78.554688 -119.925781 82.671875 -122.3125 C 88.398438 -125.65625 92.9375 -128.429688 96.28125 -130.640625 C 98.1875 -131.585938 99.972656 -132.0625 101.640625 -132.0625 C 103.316406 -132.0625 104.523438 -131.867188 105.265625 -131.484375 C 106.015625 -131.097656 106.566406 -130.710938 106.921875 -130.328125 C 107.285156 -129.941406 107.675781 -129.429688 108.09375 -128.796875 C 108.507812 -128.171875 108.910156 -127.691406 109.296875 -127.359375 C 109.679688 -127.035156 109.875 -126.664062 109.875 -126.25 C 109.875 -125.832031 109.648438 -125.175781 109.203125 -124.28125 C 108.753906 -123.382812 106.472656 -119.757812 102.359375 -113.40625 C 98.242188 -107.0625 92.945312 -98.953125 86.46875 -89.078125 C 80 -79.203125 75.273438 -71.9375 72.296875 -67.28125 C 88.222656 -67.28125 105.429688 -67.582031 123.921875 -68.1875 C 146.410156 -103.675781 158.28125 -122.285156 159.53125 -124.015625 C 160.789062 -125.742188 161.925781 -126.875 162.9375 -127.40625 C 163.945312 -127.945312 165.203125 -128.21875 166.703125 -128.21875 Z M 174.578125 -127.6875 "/></g></g><g style="fill:#e1e1e1;fill-opacity:1;"><g transform="translate(51.367424, 163.84534)"><path style="stroke:none" d="M 0.15625 -14 L 6.953125 -14 L 6.953125 -12 L 4.65625 -12 L 4.65625 0 L 2.453125 0 L 2.453125 -12 L 0.15625 -12 Z M 0.15625 -14 "/></g></g><g style="fill:#e1e1e1;fill-opacity:1;"><g transform="translate(64.144637, 163.84534)"><path style="stroke:none" d="M 3 0 L 0.796875 0 L 0.796875 -14 L 3 -14 L 3 -8 L 5.5 -8 L 5.5 -14 L 7.734375 -14 L 7.734375 0 L 5.5 0 L 5.5 -6 L 3 -6 Z M 3 0 "/></g></g><g style="fill:#e1e1e1;fill-opacity:1;"><g transform="translate(78.341284, 163.84534)"><path style="stroke:none" d="M 3 -8.09375 L 6.015625 -8.09375 L 6.015625 -6.09375 L 3 -6.09375 L 3 -2 L 6.796875 -2 L 6.796875 0 L 0.796875 0 L 0.796875 -14 L 6.796875 -14 L 6.796875 -12 L 3 -12 Z M 3 -8.09375 "/></g></g><g style="fill:#e1e1e1;fill-opacity:1;"><g transform="translate(292.938148, 280.757559)"><path style="stroke:none" d="M 0.515625 -10.640625 C 0.515625 -11.773438 0.785156 -12.644531 1.328125 -13.25 C 1.867188 -13.851562 2.679688 -14.15625 3.765625 -14.15625 C 4.835938 -14.15625 5.644531 -13.851562 6.1875 -13.25 C 6.726562 -12.644531 7 -11.773438 7 -10.640625 L 7 -10.203125 L 4.921875 -10.203125 L 4.921875 -10.78125 C 4.921875 -11.289062 4.820312 -11.644531 4.625 -11.84375 C 4.4375 -12.050781 4.164062 -12.15625 3.8125 -12.15625 C 3.46875 -12.15625 3.195312 -12.050781 3 -11.84375 C 2.8125 -11.644531 2.71875 -11.289062 2.71875 -10.78125 C 2.71875 -10.300781 2.820312 -9.875 3.03125 -9.5 C 3.25 -9.132812 3.515625 -8.789062 3.828125 -8.46875 C 4.148438 -8.144531 4.492188 -7.816406 4.859375 -7.484375 C 5.234375 -7.160156 5.578125 -6.804688 5.890625 -6.421875 C 6.210938 -6.035156 6.476562 -5.59375 6.6875 -5.09375 C 6.90625 -4.601562 7.015625 -4.023438 7.015625 -3.359375 C 7.015625 -2.222656 6.738281 -1.351562 6.1875 -0.75 C 5.632812 -0.144531 4.816406 0.15625 3.734375 0.15625 C 2.660156 0.15625 1.84375 -0.144531 1.28125 -0.75 C 0.726562 -1.351562 0.453125 -2.222656 0.453125 -3.359375 L 0.453125 -4.21875 L 2.546875 -4.21875 L 2.546875 -3.21875 C 2.546875 -2.707031 2.644531 -2.351562 2.84375 -2.15625 C 3.050781 -1.957031 3.332031 -1.859375 3.6875 -1.859375 C 4.03125 -1.859375 4.300781 -1.957031 4.5 -2.15625 C 4.707031 -2.351562 4.8125 -2.707031 4.8125 -3.21875 C 4.8125 -3.695312 4.707031 -4.117188 4.5 -4.484375 C 4.289062 -4.859375 4.023438 -5.207031 3.703125 -5.53125 C 3.378906 -5.851562 3.035156 -6.175781 2.671875 -6.5 C 2.304688 -6.832031 1.960938 -7.191406 1.640625 -7.578125 C 1.316406 -7.960938 1.046875 -8.398438 0.828125 -8.890625 C 0.617188 -9.390625 0.515625 -9.972656 0.515625 -10.640625 Z M 0.515625 -10.640625 "/></g></g><g style="fill:#e1e1e1;fill-opacity:1;"><g transform="translate(306.075221, 280.757559)"><path style="stroke:none" d="M 3 -7.78125 L 5.84375 -7.78125 L 5.84375 -5.78125 L 3 -5.78125 L 3 0 L 0.796875 0 L 0.796875 -14 L 6.625 -14 L 6.625 -12 L 3 -12 Z M 3 -7.78125 "/></g></g></g></svg>