<svg xmlns="http://www.w3.org/2000/svg" xmlns:xlink="http://www.w3.org/1999/xlink" width="500" zoomAndPan="magnify" viewBox="0 0 375 374.999991" height="500" preserveAspectRatio="xMidYMid meet" version="1.2"><defs/><g id="ae026f8f00"><g style="fill:#000000;fill-opacity:1;"><g transform="translate(71.569855, 227.878065)"><path style="stroke:none" d="M 0.421875 -8.515625 C 0.421875 -9.421875 0.632812 -10.113281 1.0625 -10.59375 C 1.5 -11.082031 2.148438 -11.328125 3.015625 -11.328125 C 3.867188 -11.328125 4.507812 -11.082031 4.9375 -10.59375 C 5.375 -10.113281 5.59375 -9.421875 5.59375 -8.515625 L 5.59375 -8.15625 L 3.9375 -8.15625 L 3.9375 -8.625 C 3.9375 -9.03125 3.859375 -9.316406 3.703125 -9.484375 C 3.546875 -9.648438 3.332031 -9.734375 3.0625 -9.734375 C 2.78125 -9.734375 2.5625 -9.648438 2.40625 -9.484375 C 2.25 -9.316406 2.171875 -9.03125 2.171875 -8.625 C 2.171875 -8.238281 2.253906 -7.898438 2.421875 -7.609375 C 2.597656 -7.316406 2.8125 -7.039062 3.0625 -6.78125 C 3.320312 -6.519531 3.597656 -6.253906 3.890625 -5.984375 C 4.191406 -5.722656 4.46875 -5.4375 4.71875 -5.125 C 4.976562 -4.820312 5.191406 -4.472656 5.359375 -4.078125 C 5.523438 -3.679688 5.609375 -3.21875 5.609375 -2.6875 C 5.609375 -1.78125 5.382812 -1.082031 4.9375 -0.59375 C 4.5 -0.113281 3.847656 0.125 2.984375 0.125 C 2.128906 0.125 1.476562 -0.113281 1.03125 -0.59375 C 0.59375 -1.082031 0.375 -1.78125 0.375 -2.6875 L 0.375 -3.375 L 2.03125 -3.375 L 2.03125 -2.578125 C 2.03125 -2.171875 2.113281 -1.882812 2.28125 -1.71875 C 2.445312 -1.5625 2.664062 -1.484375 2.9375 -1.484375 C 3.21875 -1.484375 3.441406 -1.5625 3.609375 -1.71875 C 3.773438 -1.882812 3.859375 -2.171875 3.859375 -2.578125 C 3.859375 -2.960938 3.769531 -3.300781 3.59375 -3.59375 C 3.425781 -3.882812 3.210938 -4.160156 2.953125 -4.421875 C 2.703125 -4.679688 2.429688 -4.941406 2.140625 -5.203125 C 1.847656 -5.460938 1.570312 -5.75 1.3125 -6.0625 C 1.050781 -6.375 0.835938 -6.726562 0.671875 -7.125 C 0.503906 -7.519531 0.421875 -7.984375 0.421875 -8.515625 Z M 0.421875 -8.515625 "/></g></g><g style="fill:#000000;fill-opacity:1;"><g transform="translate(90.35239, 227.878065)"><path style="stroke:none" d="M 6.34375 0 L 4.5625 0 L 4.25 -2.03125 L 2.09375 -2.03125 L 1.796875 0 L 0.171875 0 L 1.96875 -11.203125 L 4.546875 -11.203125 Z M 2.3125 -3.546875 L 4.015625 -3.546875 L 3.171875 -9.21875 Z M 2.3125 -3.546875 "/></g></g><g style="fill:#000000;fill-opacity:1;"><g transform="translate(109.662805, 227.878065)"><path style="stroke:none" d="M 2.203125 -8.109375 L 2.203125 0 L 0.625 0 L 0.625 -11.203125 L 2.828125 -11.203125 L 4.640625 -4.5 L 4.640625 -11.203125 L 6.203125 -11.203125 L 6.203125 0 L 4.40625 0 Z M 2.203125 -8.109375 "/></g></g><g style="fill:#000000;fill-opacity:1;"><g transform="translate(129.293141, 227.878065)"><path style="stroke:none" d=""/></g></g><g style="fill:#000000;fill-opacity:1;"><g transform="translate(144.572524, 227.878065)"><path style="stroke:none" d="M 2.40625 -6.21875 L 4.671875 -6.21875 L 4.671875 -4.625 L 2.40625 -4.625 L 2.40625 0 L 0.640625 0 L 0.640625 -11.203125 L 5.296875 -11.203125 L 5.296875 -9.59375 L 2.40625 -9.59375 Z M 2.40625 -6.21875 "/></g></g><g style="fill:#000000;fill-opacity:1;"><g transform="translate(162.875174, 227.878065)"><path style="stroke:none" d="M 4.3125 0 C 4.289062 -0.0703125 4.269531 -0.140625 4.25 -0.203125 C 4.226562 -0.265625 4.207031 -0.34375 4.1875 -0.4375 C 4.175781 -0.539062 4.164062 -0.664062 4.15625 -0.8125 C 4.15625 -0.96875 4.15625 -1.15625 4.15625 -1.375 L 4.15625 -3.140625 C 4.15625 -3.660156 4.0625 -4.023438 3.875 -4.234375 C 3.695312 -4.453125 3.410156 -4.5625 3.015625 -4.5625 L 2.40625 -4.5625 L 2.40625 0 L 0.640625 0 L 0.640625 -11.203125 L 3.296875 -11.203125 C 4.210938 -11.203125 4.875 -10.988281 5.28125 -10.5625 C 5.695312 -10.132812 5.90625 -9.488281 5.90625 -8.625 L 5.90625 -7.75 C 5.90625 -6.59375 5.519531 -5.832031 4.75 -5.46875 C 5.195312 -5.289062 5.503906 -4.992188 5.671875 -4.578125 C 5.835938 -4.171875 5.921875 -3.675781 5.921875 -3.09375 L 5.921875 -1.359375 C 5.921875 -1.078125 5.929688 -0.832031 5.953125 -0.625 C 5.972656 -0.414062 6.023438 -0.207031 6.109375 0 Z M 2.40625 -9.59375 L 2.40625 -6.15625 L 3.09375 -6.15625 C 3.414062 -6.15625 3.671875 -6.238281 3.859375 -6.40625 C 4.046875 -6.582031 4.140625 -6.894531 4.140625 -7.34375 L 4.140625 -8.453125 C 4.140625 -8.859375 4.066406 -9.148438 3.921875 -9.328125 C 3.785156 -9.503906 3.5625 -9.59375 3.25 -9.59375 Z M 2.40625 -9.59375 "/></g></g><g style="fill:#000000;fill-opacity:1;"><g transform="translate(182.105607, 227.878065)"><path style="stroke:none" d="M 6.34375 0 L 4.5625 0 L 4.25 -2.03125 L 2.09375 -2.03125 L 1.796875 0 L 0.171875 0 L 1.96875 -11.203125 L 4.546875 -11.203125 Z M 2.3125 -3.546875 L 4.015625 -3.546875 L 3.171875 -9.21875 Z M 2.3125 -3.546875 "/></g></g><g style="fill:#000000;fill-opacity:1;"><g transform="translate(201.416023, 227.878065)"><path style="stroke:none" d="M 2.203125 -8.109375 L 2.203125 0 L 0.625 0 L 0.625 -11.203125 L 2.828125 -11.203125 L 4.640625 -4.5 L 4.640625 -11.203125 L 6.203125 -11.203125 L 6.203125 0 L 4.40625 0 Z M 2.203125 -8.109375 "/></g></g><g style="fill:#000000;fill-opacity:1;"><g transform="translate(221.046358, 227.878065)"><path style="stroke:none" d="M 5.75 -4.171875 L 5.75 -2.6875 C 5.75 -1.78125 5.523438 -1.082031 5.078125 -0.59375 C 4.640625 -0.113281 3.988281 0.125 3.125 0.125 C 2.257812 0.125 1.601562 -0.113281 1.15625 -0.59375 C 0.71875 -1.082031 0.5 -1.78125 0.5 -2.6875 L 0.5 -8.515625 C 0.5 -9.421875 0.71875 -10.113281 1.15625 -10.59375 C 1.601562 -11.082031 2.257812 -11.328125 3.125 -11.328125 C 3.988281 -11.328125 4.640625 -11.082031 5.078125 -10.59375 C 5.523438 -10.113281 5.75 -9.421875 5.75 -8.515625 L 5.75 -7.421875 L 4.078125 -7.421875 L 4.078125 -8.625 C 4.078125 -9.03125 3.992188 -9.316406 3.828125 -9.484375 C 3.660156 -9.648438 3.441406 -9.734375 3.171875 -9.734375 C 2.890625 -9.734375 2.664062 -9.648438 2.5 -9.484375 C 2.332031 -9.316406 2.25 -9.03125 2.25 -8.625 L 2.25 -2.578125 C 2.25 -2.171875 2.332031 -1.882812 2.5 -1.71875 C 2.664062 -1.5625 2.890625 -1.484375 3.171875 -1.484375 C 3.441406 -1.484375 3.660156 -1.5625 3.828125 -1.71875 C 3.992188 -1.882812 4.078125 -2.171875 4.078125 -2.578125 L 4.078125 -4.171875 Z M 5.75 -4.171875 "/></g></g><g style="fill:#000000;fill-opacity:1;"><g transform="translate(240.020856, 227.878065)"><path style="stroke:none" d="M 0.640625 -11.203125 L 2.40625 -11.203125 L 2.40625 0 L 0.640625 0 Z M 0.640625 -11.203125 "/></g></g><g style="fill:#000000;fill-opacity:1;"><g transform="translate(255.860096, 227.878065)"><path style="stroke:none" d="M 0.421875 -8.515625 C 0.421875 -9.421875 0.632812 -10.113281 1.0625 -10.59375 C 1.5 -11.082031 2.148438 -11.328125 3.015625 -11.328125 C 3.867188 -11.328125 4.507812 -11.082031 4.9375 -10.59375 C 5.375 -10.113281 5.59375 -9.421875 5.59375 -8.515625 L 5.59375 -8.15625 L 3.9375 -8.15625 L 3.9375 -8.625 C 3.9375 -9.03125 3.859375 -9.316406 3.703125 -9.484375 C 3.546875 -9.648438 3.332031 -9.734375 3.0625 -9.734375 C 2.78125 -9.734375 2.5625 -9.648438 2.40625 -9.484375 C 2.25 -9.316406 2.171875 -9.03125 2.171875 -8.625 C 2.171875 -8.238281 2.253906 -7.898438 2.421875 -7.609375 C 2.597656 -7.316406 2.8125 -7.039062 3.0625 -6.78125 C 3.320312 -6.519531 3.597656 -6.253906 3.890625 -5.984375 C 4.191406 -5.722656 4.46875 -5.4375 4.71875 -5.125 C 4.976562 -4.820312 5.191406 -4.472656 5.359375 -4.078125 C 5.523438 -3.679688 5.609375 -3.21875 5.609375 -2.6875 C 5.609375 -1.78125 5.382812 -1.082031 4.9375 -0.59375 C 4.5 -0.113281 3.847656 0.125 2.984375 0.125 C 2.128906 0.125 1.476562 -0.113281 1.03125 -0.59375 C 0.59375 -1.082031 0.375 -1.78125 0.375 -2.6875 L 0.375 -3.375 L 2.03125 -3.375 L 2.03125 -2.578125 C 2.03125 -2.171875 2.113281 -1.882812 2.28125 -1.71875 C 2.445312 -1.5625 2.664062 -1.484375 2.9375 -1.484375 C 3.21875 -1.484375 3.441406 -1.5625 3.609375 -1.71875 C 3.773438 -1.882812 3.859375 -2.171875 3.859375 -2.578125 C 3.859375 -2.960938 3.769531 -3.300781 3.59375 -3.59375 C 3.425781 -3.882812 3.210938 -4.160156 2.953125 -4.421875 C 2.703125 -4.679688 2.429688 -4.941406 2.140625 -5.203125 C 1.847656 -5.460938 1.570312 -5.75 1.3125 -6.0625 C 1.050781 -6.375 0.835938 -6.726562 0.671875 -7.125 C 0.503906 -7.519531 0.421875 -7.984375 0.421875 -8.515625 Z M 0.421875 -8.515625 "/></g></g><g style="fill:#000000;fill-opacity:1;"><g transform="translate(274.642641, 227.878065)"><path style="stroke:none" d="M 5.75 -4.171875 L 5.75 -2.6875 C 5.75 -1.78125 5.523438 -1.082031 5.078125 -0.59375 C 4.640625 -0.113281 3.988281 0.125 3.125 0.125 C 2.257812 0.125 1.601562 -0.113281 1.15625 -0.59375 C 0.71875 -1.082031 0.5 -1.78125 0.5 -2.6875 L 0.5 -8.515625 C 0.5 -9.421875 0.71875 -10.113281 1.15625 -10.59375 C 1.601562 -11.082031 2.257812 -11.328125 3.125 -11.328125 C 3.988281 -11.328125 4.640625 -11.082031 5.078125 -10.59375 C 5.523438 -10.113281 5.75 -9.421875 5.75 -8.515625 L 5.75 -7.421875 L 4.078125 -7.421875 L 4.078125 -8.625 C 4.078125 -9.03125 3.992188 -9.316406 3.828125 -9.484375 C 3.660156 -9.648438 3.441406 -9.734375 3.171875 -9.734375 C 2.890625 -9.734375 2.664062 -9.648438 2.5 -9.484375 C 2.332031 -9.316406 2.25 -9.03125 2.25 -8.625 L 2.25 -2.578125 C 2.25 -2.171875 2.332031 -1.882812 2.5 -1.71875 C 2.664062 -1.5625 2.890625 -1.484375 3.171875 -1.484375 C 3.441406 -1.484375 3.660156 -1.5625 3.828125 -1.71875 C 3.992188 -1.882812 4.078125 -2.171875 4.078125 -2.578125 L 4.078125 -4.171875 Z M 5.75 -4.171875 "/></g></g><g style="fill:#000000;fill-opacity:1;"><g transform="translate(293.617127, 227.878065)"><path style="stroke:none" d="M 2.25 -2.578125 C 2.25 -2.171875 2.332031 -1.882812 2.5 -1.71875 C 2.664062 -1.550781 2.890625 -1.46875 3.171875 -1.46875 C 3.441406 -1.46875 3.660156 -1.550781 3.828125 -1.71875 C 3.992188 -1.882812 4.078125 -2.171875 4.078125 -2.578125 L 4.078125 -8.625 C 4.078125 -9.03125 3.992188 -9.316406 3.828125 -9.484375 C 3.660156 -9.648438 3.441406 -9.734375 3.171875 -9.734375 C 2.890625 -9.734375 2.664062 -9.648438 2.5 -9.484375 C 2.332031 -9.316406 2.25 -9.03125 2.25 -8.625 Z M 0.5 -8.515625 C 0.5 -9.421875 0.726562 -10.113281 1.1875 -10.59375 C 1.644531 -11.082031 2.304688 -11.328125 3.171875 -11.328125 C 4.035156 -11.328125 4.695312 -11.082031 5.15625 -10.59375 C 5.613281 -10.113281 5.84375 -9.421875 5.84375 -8.515625 L 5.84375 -2.6875 C 5.84375 -1.78125 5.613281 -1.082031 5.15625 -0.59375 C 4.695312 -0.113281 4.035156 0.125 3.171875 0.125 C 2.304688 0.125 1.644531 -0.113281 1.1875 -0.59375 C 0.726562 -1.082031 0.5 -1.78125 0.5 -2.6875 Z M 0.5 -8.515625 "/></g></g><g style="fill:#d1cbcb;fill-opacity:1;"><g transform="translate(53.034876, 195.70952)"><path style="stroke:none" d="M 15.90625 -3.578125 C 12.351562 -0.410156 8.113281 1.171875 3.1875 1.171875 C 0.195312 1.171875 -1.929688 0.539062 -3.203125 -0.71875 C -3.929688 -1.40625 -4.296875 -2.617188 -4.296875 -4.359375 C -4.296875 -7.023438 -2.257812 -8.753906 1.8125 -9.546875 C 3.082031 -9.785156 4.613281 -9.90625 6.40625 -9.90625 C 8.207031 -9.90625 10.664062 -9.570312 13.78125 -8.90625 C 15.4375 -10.757812 17.414062 -13.484375 19.71875 -17.078125 C 22.019531 -20.679688 23.835938 -23.457031 25.171875 -25.40625 C 26.515625 -27.351562 28.035156 -29.34375 29.734375 -31.375 C 31.429688 -33.414062 33.207031 -35.257812 35.0625 -36.90625 C 38.820312 -40.257812 42.546875 -41.9375 46.234375 -41.9375 C 47.878906 -41.9375 49.0625 -41.519531 49.78125 -40.6875 C 50.507812 -39.863281 50.875 -38.882812 50.875 -37.75 C 50.875 -36.613281 50.351562 -35.289062 49.3125 -33.78125 C 48.269531 -32.269531 47.066406 -30.929688 45.703125 -29.765625 C 44.335938 -28.597656 42.988281 -27.609375 41.65625 -26.796875 C 40.332031 -25.984375 39.289062 -25.578125 38.53125 -25.578125 C 37.769531 -25.578125 37.109375 -25.898438 36.546875 -26.546875 C 35.992188 -27.203125 35.71875 -27.832031 35.71875 -28.4375 C 35.71875 -29.039062 35.800781 -29.457031 35.96875 -29.6875 C 36.132812 -29.925781 36.300781 -30.046875 36.46875 -30.046875 C 36.644531 -30.046875 36.75 -29.941406 36.78125 -29.734375 C 37.394531 -29.929688 38.375 -30.53125 39.71875 -31.53125 C 41.0625 -32.53125 42.285156 -33.570312 43.390625 -34.65625 C 44.503906 -35.75 45.0625 -36.429688 45.0625 -36.703125 C 45.0625 -36.984375 44.894531 -37.125 44.5625 -37.125 C 44.226562 -37.125 43.773438 -37.007812 43.203125 -36.78125 C 42.628906 -36.550781 41.863281 -36.078125 40.90625 -35.359375 C 39.957031 -34.648438 38.925781 -33.734375 37.8125 -32.609375 C 35.144531 -29.929688 32.164062 -26.140625 28.875 -21.234375 C 28.113281 -20.117188 27.035156 -18.503906 25.640625 -16.390625 C 22.796875 -12.085938 20.757812 -9.144531 19.53125 -7.5625 C 29.332031 -4.988281 36.332031 -3.703125 40.53125 -3.703125 C 42.476562 -3.703125 43.847656 -3.945312 44.640625 -4.4375 C 44.921875 -4.613281 45.109375 -4.703125 45.203125 -4.703125 C 45.296875 -4.703125 45.34375 -4.625 45.34375 -4.46875 C 45.34375 -4.3125 45.253906 -4.082031 45.078125 -3.78125 C 44.910156 -3.476562 44.488281 -2.828125 43.8125 -1.828125 C 43.132812 -0.835938 42.632812 -0.25 42.3125 -0.0625 C 41.375 0.5 39.78125 0.78125 37.53125 0.78125 C 35.289062 0.78125 33.15625 0.613281 31.125 0.28125 C 29.09375 -0.0390625 27.453125 -0.359375 26.203125 -0.671875 C 24.960938 -0.984375 23.125 -1.492188 20.6875 -2.203125 C 18.257812 -2.910156 16.664062 -3.367188 15.90625 -3.578125 Z M 5.4375 -5.328125 C 2.9375 -5.328125 1.6875 -5.03125 1.6875 -4.4375 C 1.6875 -4.207031 1.898438 -4.003906 2.328125 -3.828125 C 2.765625 -3.660156 3.28125 -3.578125 3.875 -3.578125 C 5.71875 -3.578125 7.5 -4.066406 9.21875 -5.046875 C 7.75 -5.234375 6.488281 -5.328125 5.4375 -5.328125 Z M 5.4375 -5.328125 "/></g></g><g style="fill:#d1cbcb;fill-opacity:1;"><g transform="translate(95.320793, 195.70952)"><path style="stroke:none" d="M 23.640625 -21.765625 C 25.085938 -21.765625 25.8125 -21.269531 25.8125 -20.28125 C 25.8125 -19.75 25.6875 -19.359375 25.4375 -19.109375 C 25.1875 -18.859375 24.65625 -18.03125 23.84375 -16.625 C 23.03125 -15.226562 22.132812 -13.4375 21.15625 -11.25 C 20.175781 -9.0625 19.539062 -7.191406 19.25 -5.640625 C 19.195312 -5.453125 19.171875 -5.1875 19.171875 -4.84375 C 19.171875 -3.789062 19.457031 -3.265625 20.03125 -3.265625 C 20.601562 -3.265625 21.28125 -3.535156 22.0625 -4.078125 C 22.84375 -4.628906 23.535156 -5.210938 24.140625 -5.828125 C 24.753906 -6.453125 25.351562 -7.085938 25.9375 -7.734375 C 26.519531 -8.378906 26.867188 -8.75 26.984375 -8.84375 C 27.097656 -8.945312 27.269531 -9 27.5 -9 C 27.863281 -9 28.082031 -8.71875 28.15625 -8.15625 C 28.238281 -7.601562 28.28125 -7.03125 28.28125 -6.4375 C 28.28125 -5.851562 28.222656 -5.445312 28.109375 -5.21875 C 27.546875 -4.125 26.320312 -2.8125 24.4375 -1.28125 C 22.5625 0.238281 20.851562 1 19.3125 1 C 17.78125 1 16.648438 0.53125 15.921875 -0.40625 C 15.203125 -1.34375 14.84375 -2.378906 14.84375 -3.515625 C 14.84375 -4.648438 15.03125 -5.644531 15.40625 -6.5 C 13.820312 -4.4375 12.003906 -2.6875 9.953125 -1.25 C 7.898438 0.175781 6.222656 0.890625 4.921875 0.890625 C 3.628906 0.890625 2.570312 0.5 1.75 -0.28125 C 0.695312 -1.257812 0.171875 -2.613281 0.171875 -4.34375 C 0.171875 -6.070312 0.554688 -7.804688 1.328125 -9.546875 C 2.109375 -11.296875 3.128906 -12.890625 4.390625 -14.328125 C 5.648438 -15.773438 7.03125 -17.09375 8.53125 -18.28125 C 11.707031 -20.757812 14.628906 -22 17.296875 -22 C 18.328125 -22 19.164062 -21.828125 19.8125 -21.484375 C 20.46875 -21.140625 20.882812 -20.710938 21.0625 -20.203125 C 21.519531 -20.890625 21.90625 -21.320312 22.21875 -21.5 C 22.53125 -21.675781 23.003906 -21.765625 23.640625 -21.765625 Z M 19.828125 -18.59375 C 16.554688 -18.59375 13.175781 -16.78125 9.6875 -13.15625 C 8.445312 -11.851562 7.304688 -10.296875 6.265625 -8.484375 C 5.222656 -6.671875 4.703125 -5.425781 4.703125 -4.75 C 4.703125 -4.082031 4.890625 -3.75 5.265625 -3.75 C 5.804688 -3.75 7.296875 -4.800781 9.734375 -6.90625 C 12.179688 -9.019531 13.804688 -10.578125 14.609375 -11.578125 C 15.484375 -12.679688 17.222656 -15.019531 19.828125 -18.59375 Z M 19.828125 -18.59375 "/></g></g><g style="fill:#d1cbcb;fill-opacity:1;"><g transform="translate(119.214056, 195.70952)"><path style="stroke:none" d="M 26.046875 -9 C 26.398438 -9 26.613281 -8.71875 26.6875 -8.15625 C 26.769531 -7.601562 26.8125 -7.03125 26.8125 -6.4375 C 26.8125 -5.851562 26.753906 -5.445312 26.640625 -5.21875 C 26.085938 -4.144531 24.875 -2.835938 23 -1.296875 C 21.132812 0.234375 19.359375 1 17.671875 1 C 16.640625 1 15.6875 0.6875 14.8125 0.0625 C 13.9375 -0.550781 13.5 -1.628906 13.5 -3.171875 C 13.5 -4.722656 13.90625 -6.242188 14.71875 -7.734375 C 9.988281 -1.796875 6.273438 1.171875 3.578125 1.171875 C 2.515625 1.171875 1.648438 0.785156 0.984375 0.015625 C 0.328125 -0.742188 0 -1.523438 0 -2.328125 C 0 -3.140625 0.113281 -3.976562 0.34375 -4.84375 C 0.570312 -5.71875 0.816406 -6.5 1.078125 -7.1875 C 1.335938 -7.875 1.71875 -8.722656 2.21875 -9.734375 C 2.726562 -10.753906 3.101562 -11.492188 3.34375 -11.953125 C 3.59375 -12.410156 3.988281 -13.097656 4.53125 -14.015625 C 5.082031 -14.941406 5.800781 -16.1875 6.6875 -17.75 C 7.570312 -19.320312 8.304688 -20.484375 8.890625 -21.234375 C 9.472656 -21.992188 10.039062 -22.378906 10.59375 -22.390625 C 11.15625 -22.398438 11.644531 -22.175781 12.0625 -21.71875 C 12.476562 -21.257812 12.6875 -20.882812 12.6875 -20.59375 C 12.6875 -20.3125 12.046875 -19.023438 10.765625 -16.734375 C 6.984375 -9.890625 5.09375 -5.90625 5.09375 -4.78125 C 5.09375 -4.5 5.203125 -4.359375 5.421875 -4.359375 C 6.335938 -4.359375 8.617188 -6.34375 12.265625 -10.3125 C 15.910156 -14.28125 18.019531 -16.820312 18.59375 -17.9375 C 19.164062 -19.0625 19.722656 -20.003906 20.265625 -20.765625 C 20.804688 -21.535156 21.210938 -22.003906 21.484375 -22.171875 C 22.304688 -22.703125 23.367188 -22.988281 24.671875 -23.03125 C 24.878906 -23.03125 25.039062 -23.019531 25.15625 -23 C 25.269531 -22.976562 25.398438 -22.816406 25.546875 -22.515625 C 25.703125 -22.210938 25.78125 -21.972656 25.78125 -21.796875 C 25.613281 -21.265625 24.851562 -19.84375 23.5 -17.53125 C 22.15625 -15.21875 21.40625 -13.910156 21.25 -13.609375 C 19 -8.953125 17.875 -5.914062 17.875 -4.5 C 17.875 -3.695312 18.179688 -3.296875 18.796875 -3.296875 C 19.898438 -3.453125 21.234375 -4.335938 22.796875 -5.953125 C 23.367188 -6.546875 23.9375 -7.148438 24.5 -7.765625 C 25.070312 -8.378906 25.421875 -8.738281 25.546875 -8.84375 C 25.679688 -8.945312 25.847656 -9 26.046875 -9 Z M 26.046875 -9 "/></g></g><g style="fill:#d1cbcb;fill-opacity:1;"><g transform="translate(142.419742, 195.70952)"><path style="stroke:none" d="M 16.734375 -4.40625 C 16.734375 -3.570312 17.304688 -3.15625 18.453125 -3.15625 C 19.054688 -3.15625 19.820312 -3.457031 20.75 -4.0625 C 21.675781 -4.675781 22.515625 -5.347656 23.265625 -6.078125 C 25.242188 -8.046875 26.367188 -9.03125 26.640625 -9.03125 C 27.140625 -9.03125 27.390625 -8.3125 27.390625 -6.875 C 27.390625 -5.445312 26.941406 -4.460938 26.046875 -3.921875 C 23.304688 -1.460938 21.191406 0.0351562 19.703125 0.578125 C 18.867188 0.859375 17.941406 0.988281 16.921875 0.96875 C 15.910156 0.957031 14.910156 0.519531 13.921875 -0.34375 C 12.929688 -1.207031 12.4375 -2.253906 12.4375 -3.484375 C 12.4375 -4.710938 12.757812 -6.109375 13.40625 -7.671875 C 14.050781 -9.242188 14.710938 -10.585938 15.390625 -11.703125 C 16.078125 -12.816406 16.914062 -14.113281 17.90625 -15.59375 C 18.894531 -17.070312 19.421875 -17.992188 19.484375 -18.359375 L 19.421875 -18.421875 C 18.796875 -18.359375 17.234375 -17.113281 14.734375 -14.6875 C 12.242188 -12.269531 10.1875 -10.160156 8.5625 -8.359375 C 6.9375 -6.566406 5 -4.171875 2.75 -1.171875 C 2.125 -0.347656 1.609375 0.0625 1.203125 0.0625 C 0.804688 0.0625 0.269531 -0.0664062 -0.40625 -0.328125 C -1.09375 -0.585938 -1.507812 -0.773438 -1.65625 -0.890625 C -1.8125 -1.003906 -1.890625 -1.175781 -1.890625 -1.40625 C -1.890625 -1.632812 -1.820312 -1.914062 -1.6875 -2.25 C -1.550781 -2.582031 -1.421875 -2.859375 -1.296875 -3.078125 C -1.179688 -3.296875 -0.976562 -3.632812 -0.6875 -4.09375 C -0.40625 -4.550781 0.160156 -5.519531 1.015625 -7 C 1.867188 -8.476562 3.171875 -10.6875 4.921875 -13.625 C 6.679688 -16.570312 7.734375 -18.351562 8.078125 -18.96875 C 8.804688 -20.226562 9.398438 -21.144531 9.859375 -21.71875 C 10.710938 -22.800781 12.160156 -23.34375 14.203125 -23.34375 C 14.660156 -23.34375 14.890625 -23.054688 14.890625 -22.484375 C 14.890625 -21.585938 14.0625 -19.898438 12.40625 -17.421875 L 11.203125 -15.609375 C 14.503906 -19.273438 17.289062 -21.597656 19.5625 -22.578125 C 20.675781 -23.054688 21.675781 -23.296875 22.5625 -23.296875 C 23.445312 -23.296875 24.148438 -23.054688 24.671875 -22.578125 C 25.203125 -22.097656 25.46875 -21.566406 25.46875 -20.984375 C 25.46875 -20.398438 25.265625 -19.703125 24.859375 -18.890625 C 24.460938 -18.078125 24.054688 -17.347656 23.640625 -16.703125 C 23.234375 -16.066406 22.695312 -15.257812 22.03125 -14.28125 C 21.363281 -13.3125 21 -12.785156 20.9375 -12.703125 C 20.882812 -12.617188 20.738281 -12.390625 20.5 -12.015625 C 20.257812 -11.640625 20.082031 -11.363281 19.96875 -11.1875 C 19.851562 -11.019531 19.660156 -10.722656 19.390625 -10.296875 C 19.128906 -9.867188 18.914062 -9.507812 18.75 -9.21875 C 18.582031 -8.9375 18.378906 -8.582031 18.140625 -8.15625 C 17.910156 -7.738281 17.722656 -7.378906 17.578125 -7.078125 C 17.429688 -6.773438 17.28125 -6.441406 17.125 -6.078125 C 16.863281 -5.410156 16.734375 -4.851562 16.734375 -4.40625 Z M 16.734375 -4.40625 "/></g></g><g style="fill:#d1cbcb;fill-opacity:1;"><g transform="translate(165.338938, 195.70952)"><path style="stroke:none" d="M 37.765625 -42.9375 C 38.117188 -42.9375 38.398438 -42.820312 38.609375 -42.59375 C 38.828125 -42.363281 38.9375 -42.128906 38.9375 -41.890625 C 38.9375 -41.660156 38.75 -41.222656 38.375 -40.578125 C 38 -39.941406 37.144531 -38.546875 35.8125 -36.390625 C 34.476562 -34.242188 33.4375 -32.5625 32.6875 -31.34375 C 28.351562 -24.289062 24.953125 -18.328125 22.484375 -13.453125 C 20.023438 -8.585938 18.796875 -5.648438 18.796875 -4.640625 L 18.796875 -4.40625 C 18.796875 -3.625 19.082031 -3.234375 19.65625 -3.234375 C 20.226562 -3.234375 20.921875 -3.5 21.734375 -4.03125 C 22.546875 -4.570312 23.253906 -5.144531 23.859375 -5.75 C 24.472656 -6.363281 25.085938 -7 25.703125 -7.65625 C 26.328125 -8.320312 26.707031 -8.710938 26.84375 -8.828125 C 26.976562 -8.941406 27.148438 -9 27.359375 -9 C 27.679688 -9 27.890625 -8.789062 27.984375 -8.375 C 28.078125 -7.96875 28.125 -7.394531 28.125 -6.65625 C 28.125 -5.925781 28.066406 -5.445312 27.953125 -5.21875 C 27.398438 -4.144531 26.179688 -2.835938 24.296875 -1.296875 C 22.421875 0.234375 20.644531 1 18.96875 1 C 16.101562 1 14.671875 -0.210938 14.671875 -2.640625 C 14.671875 -4.148438 15.242188 -6.125 16.390625 -8.5625 C 14.835938 -6.5625 13.257812 -4.851562 11.65625 -3.4375 C 8.675781 -0.84375 6.085938 0.453125 3.890625 0.453125 C 2.671875 0.453125 1.769531 0.0234375 1.1875 -0.828125 C 0.601562 -1.691406 0.3125 -2.929688 0.3125 -4.546875 C 0.3125 -6.160156 0.941406 -8.09375 2.203125 -10.34375 C 3.460938 -12.59375 5.03125 -14.617188 6.90625 -16.421875 C 8.789062 -18.234375 10.878906 -19.742188 13.171875 -20.953125 C 15.460938 -22.171875 17.578125 -22.78125 19.515625 -22.78125 C 20.117188 -22.78125 20.832031 -22.40625 21.65625 -21.65625 C 22.207031 -22.53125 23.226562 -24.285156 24.71875 -26.921875 C 29.40625 -34.816406 32.5 -39.632812 34 -41.375 C 34.800781 -42.414062 36.054688 -42.9375 37.765625 -42.9375 Z M 19.90625 -18.96875 C 17.15625 -18.351562 14.597656 -17.070312 12.234375 -15.125 C 9.867188 -13.175781 8.09375 -11.132812 6.90625 -9 C 5.71875 -6.875 5.125 -5.492188 5.125 -4.859375 C 5.125 -4.234375 5.257812 -3.921875 5.53125 -3.921875 C 6.675781 -3.921875 9.507812 -6.484375 14.03125 -11.609375 C 16.289062 -14.128906 18.25 -16.582031 19.90625 -18.96875 Z M 19.90625 -18.96875 "/></g></g><g style="fill:#d1cbcb;fill-opacity:1;"><g transform="translate(189.490041, 195.70952)"><path style="stroke:none" d="M 11.140625 -15.609375 C 15.648438 -20.734375 19.488281 -23.296875 22.65625 -23.296875 C 23.4375 -23.296875 24.082031 -23.0625 24.59375 -22.59375 C 25.101562 -22.125 25.359375 -21.515625 25.359375 -20.765625 C 25.359375 -20.023438 24.828125 -18.78125 23.765625 -17.03125 C 22.703125 -15.28125 21.722656 -13.804688 20.828125 -12.609375 C 20.347656 -11.992188 19.804688 -11.6875 19.203125 -11.6875 C 18.609375 -11.6875 18.140625 -11.90625 17.796875 -12.34375 C 17.460938 -12.78125 17.296875 -13.296875 17.296875 -13.890625 C 17.296875 -15.210938 18.003906 -16.703125 19.421875 -18.359375 L 19.359375 -18.421875 C 18.734375 -18.359375 17.171875 -17.113281 14.671875 -14.6875 C 12.179688 -12.269531 10.0625 -10.097656 8.3125 -8.171875 C 6.570312 -6.253906 4.679688 -3.921875 2.640625 -1.171875 C 2.046875 -0.347656 1.539062 0.0625 1.125 0.0625 C 0.71875 0.0625 0.175781 -0.0664062 -0.5 -0.328125 C -1.175781 -0.585938 -1.585938 -0.773438 -1.734375 -0.890625 C -1.878906 -1.003906 -1.953125 -1.191406 -1.953125 -1.453125 C -1.953125 -1.722656 -1.875 -2.035156 -1.71875 -2.390625 C -1.5625 -2.742188 -1.28125 -3.242188 -0.875 -3.890625 C -0.46875 -4.546875 0.148438 -5.597656 0.984375 -7.046875 C 1.816406 -8.492188 3.109375 -10.6875 4.859375 -13.625 C 6.617188 -16.570312 7.671875 -18.351562 8.015625 -18.96875 C 8.742188 -20.226562 9.335938 -21.144531 9.796875 -21.71875 C 10.660156 -22.800781 12.113281 -23.34375 14.15625 -23.34375 C 14.613281 -23.34375 14.84375 -23.054688 14.84375 -22.484375 C 14.84375 -21.585938 14.007812 -19.898438 12.34375 -17.421875 Z M 11.140625 -15.609375 "/></g></g><g style="fill:#d1cbcb;fill-opacity:1;"><g transform="translate(209.974073, 195.70952)"><path style="stroke:none" d="M 10.453125 9.515625 C 10.359375 9.609375 10.066406 10.085938 9.578125 10.953125 C 9.097656 11.828125 8.578125 12.707031 8.015625 13.59375 C 7.460938 14.476562 6.78125 15.320312 5.96875 16.125 C 5.15625 16.925781 4.476562 17.359375 3.9375 17.421875 C 3.394531 17.492188 3.046875 17.53125 2.890625 17.53125 C 1.140625 17.53125 0.265625 16.644531 0.265625 14.875 C 0.265625 12.789062 1.34375 10.351562 3.5 7.5625 C 4.320312 6.507812 5.351562 5.375 6.59375 4.15625 C 7.832031 2.945312 8.507812 2.257812 8.625 2.09375 C 8.738281 1.9375 10.171875 -0.738281 12.921875 -5.9375 C 11.085938 -3.925781 9.382812 -2.296875 7.8125 -1.046875 C 6.25 0.203125 4.742188 0.90625 3.296875 1.0625 L 3.09375 1.0625 C 2.351562 1.0625 1.617188 0.816406 0.890625 0.328125 C 0.160156 -0.160156 -0.203125 -1.015625 -0.203125 -2.234375 C -0.203125 -4.046875 0.285156 -5.800781 1.265625 -7.5 C 1.609375 -8.09375 2.203125 -9.097656 3.046875 -10.515625 C 3.898438 -11.929688 4.691406 -13.296875 5.421875 -14.609375 C 6.109375 -15.660156 6.8125 -16.882812 7.53125 -18.28125 C 8.257812 -19.675781 8.8125 -20.671875 9.1875 -21.265625 C 9.570312 -21.867188 9.9375 -22.171875 10.28125 -22.171875 C 10.625 -22.171875 11.066406 -21.957031 11.609375 -21.53125 C 12.160156 -21.101562 12.4375 -20.59375 12.4375 -20 C 12.4375 -19.40625 11.179688 -16.832031 8.671875 -12.28125 C 6.171875 -7.738281 4.921875 -5.15625 4.921875 -4.53125 C 4.921875 -4.375 5 -4.296875 5.15625 -4.296875 C 5.675781 -4.296875 6.816406 -5.023438 8.578125 -6.484375 C 10.347656 -7.953125 12.300781 -9.832031 14.4375 -12.125 C 16.820312 -14.65625 18.691406 -16.972656 20.046875 -19.078125 C 20.222656 -19.347656 20.363281 -19.550781 20.46875 -19.6875 C 20.570312 -19.832031 20.703125 -20.023438 20.859375 -20.265625 C 21.023438 -20.503906 21.160156 -20.691406 21.265625 -20.828125 C 21.367188 -20.960938 21.492188 -21.117188 21.640625 -21.296875 C 21.785156 -21.484375 21.914062 -21.625 22.03125 -21.71875 C 22.144531 -21.8125 22.269531 -21.90625 22.40625 -22 C 22.613281 -22.1875 22.84375 -22.28125 23.09375 -22.28125 C 23.351562 -22.28125 23.742188 -22.222656 24.265625 -22.109375 C 24.796875 -21.992188 25.113281 -21.867188 25.21875 -21.734375 C 25.320312 -21.609375 25.429688 -21.488281 25.546875 -21.375 C 25.742188 -21.164062 25.84375 -20.96875 25.84375 -20.78125 C 25.84375 -20.601562 25.765625 -20.363281 25.609375 -20.0625 C 25.453125 -19.769531 24.566406 -18.257812 22.953125 -15.53125 C 18.171875 -7.46875 14.882812 -1.582031 13.09375 2.125 C 16 -0.320312 20.085938 -3.941406 25.359375 -8.734375 C 25.566406 -8.910156 25.773438 -9 25.984375 -9 C 26.578125 -9 26.875 -8.09375 26.875 -6.28125 C 26.875 -5.738281 26.773438 -5.382812 26.578125 -5.21875 C 20.867188 -0.820312 15.492188 4.085938 10.453125 9.515625 Z M 10.453125 9.515625 "/></g></g><g style="fill:#d1cbcb;fill-opacity:1;"><g transform="translate(232.86462, 195.70952)"><path style="stroke:none" d="M 55.890625 -40.875 L 56.265625 -40.875 C 56.378906 -40.875 56.445312 -40.863281 56.46875 -40.84375 C 56.5 -40.832031 56.539062 -40.820312 56.59375 -40.8125 C 56.644531 -40.800781 56.6875 -40.773438 56.71875 -40.734375 C 56.8125 -40.660156 56.945312 -40.578125 57.125 -40.484375 C 57.351562 -40.304688 57.46875 -40.101562 57.46875 -39.875 C 57.46875 -39.644531 57.242188 -39.171875 56.796875 -38.453125 C 56.347656 -37.742188 55.195312 -35.96875 53.34375 -33.125 C 49.0625 -26.570312 45.234375 -20.492188 41.859375 -14.890625 C 36.015625 -5.171875 33.0625 -0.28125 33 -0.21875 C 32.945312 -0.164062 32.910156 -0.113281 32.890625 -0.0625 C 32.867188 0.0507812 32.789062 0.109375 32.65625 0.109375 L 32.265625 0.03125 L 31.484375 0.234375 L 31.03125 0.140625 L 30.546875 0.234375 L 30.375 0.234375 L 28.765625 0.453125 C 27.804688 0.453125 27.328125 0.128906 27.328125 -0.515625 C 27.328125 -0.785156 27.414062 -1.117188 27.59375 -1.515625 C 28.175781 -2.910156 31.15625 -7.984375 36.53125 -16.734375 C 33 -16.640625 29.507812 -16.59375 26.0625 -16.59375 L 19.90625 -16.609375 C 18.894531 -14.992188 17.507812 -12.695312 15.75 -9.71875 C 11.957031 -3.21875 9.9375 0.0625 9.6875 0.125 C 9.4375 0.195312 9.234375 0.234375 9.078125 0.234375 C 8.929688 0.234375 8.789062 0.144531 8.65625 -0.03125 C 8.519531 -0.21875 8.425781 -0.3125 8.375 -0.3125 C 8.332031 -0.3125 8.234375 -0.273438 8.078125 -0.203125 C 7.921875 -0.128906 7.703125 -0.09375 7.421875 -0.09375 L 6.765625 -0.109375 L 6.5 -0.28125 C 6.476562 -0.28125 6.453125 -0.25 6.421875 -0.1875 C 6.398438 -0.132812 6.332031 -0.109375 6.21875 -0.109375 C 5.394531 -0.109375 4.984375 -0.453125 4.984375 -1.140625 C 4.984375 -1.597656 5.144531 -2.195312 5.46875 -2.9375 C 5.789062 -3.6875 6.210938 -4.5 6.734375 -5.375 C 7.265625 -6.257812 8.625 -8.335938 10.8125 -11.609375 C 13 -14.890625 14.09375 -16.539062 14.09375 -16.5625 C 13.726562 -16.582031 13.304688 -16.597656 12.828125 -16.609375 C 11.859375 -16.609375 11.171875 -16.648438 10.765625 -16.734375 C 9.679688 -16.921875 8.9375 -17.816406 8.53125 -19.421875 C 8.320312 -20.203125 8.226562 -20.71875 8.25 -20.96875 C 8.25 -21.488281 8.46875 -21.75 8.90625 -21.75 L 9.65625 -21.546875 C 10.039062 -21.523438 10.957031 -21.472656 12.40625 -21.390625 C 13.851562 -21.316406 14.894531 -21.28125 15.53125 -21.28125 L 17.15625 -21.34375 C 19.644531 -25.238281 22.613281 -29.640625 26.0625 -34.546875 C 23.539062 -32.484375 20.742188 -31.453125 17.671875 -31.453125 C 16.222656 -31.453125 14.972656 -31.800781 13.921875 -32.5 C 12.867188 -33.195312 12.34375 -34.078125 12.34375 -35.140625 C 12.34375 -36.210938 12.742188 -37.0625 13.546875 -37.6875 C 14.347656 -38.3125 15.113281 -38.625 15.84375 -38.625 C 16.570312 -38.625 16.9375 -38.507812 16.9375 -38.28125 C 16.9375 -38.195312 16.832031 -38.109375 16.625 -38.015625 C 16.425781 -37.921875 16.328125 -37.828125 16.328125 -37.734375 C 16.328125 -37.421875 16.660156 -37.144531 17.328125 -36.90625 C 17.992188 -36.675781 18.742188 -36.5625 19.578125 -36.5625 C 20.410156 -36.5625 21.4375 -36.800781 22.65625 -37.28125 C 23.882812 -37.769531 25.15625 -38.394531 26.46875 -39.15625 C 28.300781 -40.226562 29.753906 -41.117188 30.828125 -41.828125 C 31.441406 -42.128906 32.015625 -42.28125 32.546875 -42.28125 C 33.078125 -42.28125 33.460938 -42.21875 33.703125 -42.09375 C 33.941406 -41.96875 34.117188 -41.84375 34.234375 -41.71875 C 34.347656 -41.601562 34.472656 -41.441406 34.609375 -41.234375 C 34.742188 -41.035156 34.875 -40.882812 35 -40.78125 C 35.125 -40.675781 35.1875 -40.554688 35.1875 -40.421875 C 35.1875 -40.285156 35.113281 -40.070312 34.96875 -39.78125 C 34.820312 -39.5 34.085938 -38.34375 32.765625 -36.3125 C 31.453125 -34.28125 29.757812 -31.679688 27.6875 -28.515625 C 25.613281 -25.359375 24.097656 -23.035156 23.140625 -21.546875 C 28.242188 -21.546875 33.753906 -21.640625 39.671875 -21.828125 C 46.878906 -33.191406 50.679688 -39.148438 51.078125 -39.703125 C 51.484375 -40.253906 51.847656 -40.613281 52.171875 -40.78125 C 52.492188 -40.957031 52.894531 -41.046875 53.375 -41.046875 Z M 55.890625 -40.875 "/></g></g><g style="fill:#d1cbcb;fill-opacity:1;"><g transform="translate(276.869477, 195.70952)"><path style="stroke:none" d="M 26.046875 -9 C 26.398438 -9 26.613281 -8.71875 26.6875 -8.15625 C 26.769531 -7.601562 26.8125 -7.03125 26.8125 -6.4375 C 26.8125 -5.851562 26.753906 -5.445312 26.640625 -5.21875 C 26.085938 -4.144531 24.875 -2.835938 23 -1.296875 C 21.132812 0.234375 19.359375 1 17.671875 1 C 16.640625 1 15.6875 0.6875 14.8125 0.0625 C 13.9375 -0.550781 13.5 -1.628906 13.5 -3.171875 C 13.5 -4.722656 13.90625 -6.242188 14.71875 -7.734375 C 9.988281 -1.796875 6.273438 1.171875 3.578125 1.171875 C 2.515625 1.171875 1.648438 0.785156 0.984375 0.015625 C 0.328125 -0.742188 0 -1.523438 0 -2.328125 C 0 -3.140625 0.113281 -3.976562 0.34375 -4.84375 C 0.570312 -5.71875 0.816406 -6.5 1.078125 -7.1875 C 1.335938 -7.875 1.71875 -8.722656 2.21875 -9.734375 C 2.726562 -10.753906 3.101562 -11.492188 3.34375 -11.953125 C 3.59375 -12.410156 3.988281 -13.097656 4.53125 -14.015625 C 5.082031 -14.941406 5.800781 -16.1875 6.6875 -17.75 C 7.570312 -19.320312 8.304688 -20.484375 8.890625 -21.234375 C 9.472656 -21.992188 10.039062 -22.378906 10.59375 -22.390625 C 11.15625 -22.398438 11.644531 -22.175781 12.0625 -21.71875 C 12.476562 -21.257812 12.6875 -20.882812 12.6875 -20.59375 C 12.6875 -20.3125 12.046875 -19.023438 10.765625 -16.734375 C 6.984375 -9.890625 5.09375 -5.90625 5.09375 -4.78125 C 5.09375 -4.5 5.203125 -4.359375 5.421875 -4.359375 C 6.335938 -4.359375 8.617188 -6.34375 12.265625 -10.3125 C 15.910156 -14.28125 18.019531 -16.820312 18.59375 -17.9375 C 19.164062 -19.0625 19.722656 -20.003906 20.265625 -20.765625 C 20.804688 -21.535156 21.210938 -22.003906 21.484375 -22.171875 C 22.304688 -22.703125 23.367188 -22.988281 24.671875 -23.03125 C 24.878906 -23.03125 25.039062 -23.019531 25.15625 -23 C 25.269531 -22.976562 25.398438 -22.816406 25.546875 -22.515625 C 25.703125 -22.210938 25.78125 -21.972656 25.78125 -21.796875 C 25.613281 -21.265625 24.851562 -19.84375 23.5 -17.53125 C 22.15625 -15.21875 21.40625 -13.910156 21.25 -13.609375 C 19 -8.953125 17.875 -5.914062 17.875 -4.5 C 17.875 -3.695312 18.179688 -3.296875 18.796875 -3.296875 C 19.898438 -3.453125 21.234375 -4.335938 22.796875 -5.953125 C 23.367188 -6.546875 23.9375 -7.148438 24.5 -7.765625 C 25.070312 -8.378906 25.421875 -8.738281 25.546875 -8.84375 C 25.679688 -8.945312 25.847656 -9 26.046875 -9 Z M 26.046875 -9 "/></g></g><g style="fill:#d1cbcb;fill-opacity:1;"><g transform="translate(300.075163, 195.70952)"><path style="stroke:none" d="M 25.359375 -40.875 C 21.328125 -34.820312 17.398438 -28.492188 13.578125 -21.890625 C 14.453125 -22.347656 15.4375 -22.675781 16.53125 -22.875 C 17.632812 -23.070312 18.410156 -23.171875 18.859375 -23.171875 C 19.304688 -23.171875 19.691406 -23.15625 20.015625 -23.125 C 20.347656 -23.101562 20.765625 -23 21.265625 -22.8125 C 21.773438 -22.632812 22.210938 -22.382812 22.578125 -22.0625 C 23.453125 -21.28125 23.890625 -20.171875 23.890625 -18.734375 C 23.890625 -17.304688 23.503906 -15.734375 22.734375 -14.015625 C 21.960938 -12.304688 20.910156 -10.59375 19.578125 -8.875 C 18.253906 -7.15625 16.800781 -5.554688 15.21875 -4.078125 C 13.644531 -2.597656 11.953125 -1.390625 10.140625 -0.453125 C 8.328125 0.484375 6.640625 0.953125 5.078125 0.953125 C 4.347656 0.953125 3.507812 0.484375 2.5625 -0.453125 C 1.613281 -1.390625 1.140625 -2.625 1.140625 -4.15625 C 1.140625 -5.6875 1.796875 -8.054688 3.109375 -11.265625 C 4.429688 -14.472656 6.035156 -17.734375 7.921875 -21.046875 C 9.804688 -24.359375 11.722656 -27.585938 13.671875 -30.734375 C 15.628906 -33.890625 17.296875 -36.46875 18.671875 -38.46875 C 20.046875 -40.476562 20.882812 -41.632812 21.1875 -41.9375 C 21.5 -42.25 22.0625 -42.507812 22.875 -42.71875 C 23.6875 -42.925781 24.390625 -43.023438 24.984375 -43.015625 C 25.578125 -43.003906 25.875 -42.734375 25.875 -42.203125 C 25.875 -41.859375 25.703125 -41.414062 25.359375 -40.875 Z M 17.625 -13.375 C 18.40625 -14.75 18.796875 -16 18.796875 -17.125 C 18.796875 -18.257812 18.4375 -18.828125 17.71875 -18.828125 C 17 -18.828125 15.898438 -18.515625 14.421875 -17.890625 C 12.941406 -17.265625 12.097656 -16.953125 11.890625 -16.953125 C 11.679688 -16.953125 11.40625 -17.125 11.0625 -17.46875 C 7.332031 -10.769531 5.46875 -6.492188 5.46875 -4.640625 C 5.46875 -3.785156 5.742188 -3.359375 6.296875 -3.359375 C 7.617188 -3.359375 9.519531 -4.457031 12 -6.65625 C 14.488281 -8.863281 16.363281 -11.101562 17.625 -13.375 Z M 17.625 -13.375 "/></g></g><g style="fill:#000000;fill-opacity:1;"><g transform="translate(46.358601, 168.235537)"><path style="stroke:none" d="M 0.109375 -9.171875 L 4.5625 -9.171875 L 4.5625 -7.859375 L 3.046875 -7.859375 L 3.046875 0 L 1.609375 0 L 1.609375 -7.859375 L 0.109375 -7.859375 Z M 0.109375 -9.171875 "/></g></g><g style="fill:#000000;fill-opacity:1;"><g transform="translate(54.725902, 168.235537)"><path style="stroke:none" d="M 1.96875 0 L 0.53125 0 L 0.53125 -9.171875 L 1.96875 -9.171875 L 1.96875 -5.234375 L 3.59375 -5.234375 L 3.59375 -9.171875 L 5.0625 -9.171875 L 5.0625 0 L 3.59375 0 L 3.59375 -3.921875 L 1.96875 -3.921875 Z M 1.96875 0 "/></g></g><g style="fill:#000000;fill-opacity:1;"><g transform="translate(64.02259, 168.235537)"><path style="stroke:none" d="M 1.96875 -5.296875 L 3.9375 -5.296875 L 3.9375 -4 L 1.96875 -4 L 1.96875 -1.3125 L 4.453125 -1.3125 L 4.453125 0 L 0.53125 0 L 0.53125 -9.171875 L 4.453125 -9.171875 L 4.453125 -7.859375 L 1.96875 -7.859375 Z M 1.96875 -5.296875 "/></g></g><g style="fill:#2d5894;fill-opacity:1;"><g transform="translate(53.034876, 199.889875)"><path style="stroke:none" d="M 15.90625 -3.578125 C 12.351562 -0.410156 8.113281 1.171875 3.1875 1.171875 C 0.195312 1.171875 -1.929688 0.539062 -3.203125 -0.71875 C -3.929688 -1.40625 -4.296875 -2.617188 -4.296875 -4.359375 C -4.296875 -7.023438 -2.257812 -8.753906 1.8125 -9.546875 C 3.082031 -9.785156 4.613281 -9.90625 6.40625 -9.90625 C 8.207031 -9.90625 10.664062 -9.570312 13.78125 -8.90625 C 15.4375 -10.757812 17.414062 -13.484375 19.71875 -17.078125 C 22.019531 -20.679688 23.835938 -23.457031 25.171875 -25.40625 C 26.515625 -27.351562 28.035156 -29.34375 29.734375 -31.375 C 31.429688 -33.414062 33.207031 -35.257812 35.0625 -36.90625 C 38.820312 -40.257812 42.546875 -41.9375 46.234375 -41.9375 C 47.878906 -41.9375 49.0625 -41.519531 49.78125 -40.6875 C 50.507812 -39.863281 50.875 -38.882812 50.875 -37.75 C 50.875 -36.613281 50.351562 -35.289062 49.3125 -33.78125 C 48.269531 -32.269531 47.066406 -30.929688 45.703125 -29.765625 C 44.335938 -28.597656 42.988281 -27.609375 41.65625 -26.796875 C 40.332031 -25.984375 39.289062 -25.578125 38.53125 -25.578125 C 37.769531 -25.578125 37.109375 -25.898438 36.546875 -26.546875 C 35.992188 -27.203125 35.71875 -27.832031 35.71875 -28.4375 C 35.71875 -29.039062 35.800781 -29.457031 35.96875 -29.6875 C 36.132812 -29.925781 36.300781 -30.046875 36.46875 -30.046875 C 36.644531 -30.046875 36.75 -29.941406 36.78125 -29.734375 C 37.394531 -29.929688 38.375 -30.53125 39.71875 -31.53125 C 41.0625 -32.53125 42.285156 -33.570312 43.390625 -34.65625 C 44.503906 -35.75 45.0625 -36.429688 45.0625 -36.703125 C 45.0625 -36.984375 44.894531 -37.125 44.5625 -37.125 C 44.226562 -37.125 43.773438 -37.007812 43.203125 -36.78125 C 42.628906 -36.550781 41.863281 -36.078125 40.90625 -35.359375 C 39.957031 -34.648438 38.925781 -33.734375 37.8125 -32.609375 C 35.144531 -29.929688 32.164062 -26.140625 28.875 -21.234375 C 28.113281 -20.117188 27.035156 -18.503906 25.640625 -16.390625 C 22.796875 -12.085938 20.757812 -9.144531 19.53125 -7.5625 C 29.332031 -4.988281 36.332031 -3.703125 40.53125 -3.703125 C 42.476562 -3.703125 43.847656 -3.945312 44.640625 -4.4375 C 44.921875 -4.613281 45.109375 -4.703125 45.203125 -4.703125 C 45.296875 -4.703125 45.34375 -4.625 45.34375 -4.46875 C 45.34375 -4.3125 45.253906 -4.082031 45.078125 -3.78125 C 44.910156 -3.476562 44.488281 -2.828125 43.8125 -1.828125 C 43.132812 -0.835938 42.632812 -0.25 42.3125 -0.0625 C 41.375 0.5 39.78125 0.78125 37.53125 0.78125 C 35.289062 0.78125 33.15625 0.613281 31.125 0.28125 C 29.09375 -0.0390625 27.453125 -0.359375 26.203125 -0.671875 C 24.960938 -0.984375 23.125 -1.492188 20.6875 -2.203125 C 18.257812 -2.910156 16.664062 -3.367188 15.90625 -3.578125 Z M 5.4375 -5.328125 C 2.9375 -5.328125 1.6875 -5.03125 1.6875 -4.4375 C 1.6875 -4.207031 1.898438 -4.003906 2.328125 -3.828125 C 2.765625 -3.660156 3.28125 -3.578125 3.875 -3.578125 C 5.71875 -3.578125 7.5 -4.066406 9.21875 -5.046875 C 7.75 -5.234375 6.488281 -5.328125 5.4375 -5.328125 Z M 5.4375 -5.328125 "/></g></g><g style="fill:#2d5894;fill-opacity:1;"><g transform="translate(95.320793, 199.889875)"><path style="stroke:none" d="M 23.640625 -21.765625 C 25.085938 -21.765625 25.8125 -21.269531 25.8125 -20.28125 C 25.8125 -19.75 25.6875 -19.359375 25.4375 -19.109375 C 25.1875 -18.859375 24.65625 -18.03125 23.84375 -16.625 C 23.03125 -15.226562 22.132812 -13.4375 21.15625 -11.25 C 20.175781 -9.0625 19.539062 -7.191406 19.25 -5.640625 C 19.195312 -5.453125 19.171875 -5.1875 19.171875 -4.84375 C 19.171875 -3.789062 19.457031 -3.265625 20.03125 -3.265625 C 20.601562 -3.265625 21.28125 -3.535156 22.0625 -4.078125 C 22.84375 -4.628906 23.535156 -5.210938 24.140625 -5.828125 C 24.753906 -6.453125 25.351562 -7.085938 25.9375 -7.734375 C 26.519531 -8.378906 26.867188 -8.75 26.984375 -8.84375 C 27.097656 -8.945312 27.269531 -9 27.5 -9 C 27.863281 -9 28.082031 -8.71875 28.15625 -8.15625 C 28.238281 -7.601562 28.28125 -7.03125 28.28125 -6.4375 C 28.28125 -5.851562 28.222656 -5.445312 28.109375 -5.21875 C 27.546875 -4.125 26.320312 -2.8125 24.4375 -1.28125 C 22.5625 0.238281 20.851562 1 19.3125 1 C 17.78125 1 16.648438 0.53125 15.921875 -0.40625 C 15.203125 -1.34375 14.84375 -2.378906 14.84375 -3.515625 C 14.84375 -4.648438 15.03125 -5.644531 15.40625 -6.5 C 13.820312 -4.4375 12.003906 -2.6875 9.953125 -1.25 C 7.898438 0.175781 6.222656 0.890625 4.921875 0.890625 C 3.628906 0.890625 2.570312 0.5 1.75 -0.28125 C 0.695312 -1.257812 0.171875 -2.613281 0.171875 -4.34375 C 0.171875 -6.070312 0.554688 -7.804688 1.328125 -9.546875 C 2.109375 -11.296875 3.128906 -12.890625 4.390625 -14.328125 C 5.648438 -15.773438 7.03125 -17.09375 8.53125 -18.28125 C 11.707031 -20.757812 14.628906 -22 17.296875 -22 C 18.328125 -22 19.164062 -21.828125 19.8125 -21.484375 C 20.46875 -21.140625 20.882812 -20.710938 21.0625 -20.203125 C 21.519531 -20.890625 21.90625 -21.320312 22.21875 -21.5 C 22.53125 -21.675781 23.003906 -21.765625 23.640625 -21.765625 Z M 19.828125 -18.59375 C 16.554688 -18.59375 13.175781 -16.78125 9.6875 -13.15625 C 8.445312 -11.851562 7.304688 -10.296875 6.265625 -8.484375 C 5.222656 -6.671875 4.703125 -5.425781 4.703125 -4.75 C 4.703125 -4.082031 4.890625 -3.75 5.265625 -3.75 C 5.804688 -3.75 7.296875 -4.800781 9.734375 -6.90625 C 12.179688 -9.019531 13.804688 -10.578125 14.609375 -11.578125 C 15.484375 -12.679688 17.222656 -15.019531 19.828125 -18.59375 Z M 19.828125 -18.59375 "/></g></g><g style="fill:#2d5894;fill-opacity:1;"><g transform="translate(119.214056, 199.889875)"><path style="stroke:none" d="M 26.046875 -9 C 26.398438 -9 26.613281 -8.71875 26.6875 -8.15625 C 26.769531 -7.601562 26.8125 -7.03125 26.8125 -6.4375 C 26.8125 -5.851562 26.753906 -5.445312 26.640625 -5.21875 C 26.085938 -4.144531 24.875 -2.835938 23 -1.296875 C 21.132812 0.234375 19.359375 1 17.671875 1 C 16.640625 1 15.6875 0.6875 14.8125 0.0625 C 13.9375 -0.550781 13.5 -1.628906 13.5 -3.171875 C 13.5 -4.722656 13.90625 -6.242188 14.71875 -7.734375 C 9.988281 -1.796875 6.273438 1.171875 3.578125 1.171875 C 2.515625 1.171875 1.648438 0.785156 0.984375 0.015625 C 0.328125 -0.742188 0 -1.523438 0 -2.328125 C 0 -3.140625 0.113281 -3.976562 0.34375 -4.84375 C 0.570312 -5.71875 0.816406 -6.5 1.078125 -7.1875 C 1.335938 -7.875 1.71875 -8.722656 2.21875 -9.734375 C 2.726562 -10.753906 3.101562 -11.492188 3.34375 -11.953125 C 3.59375 -12.410156 3.988281 -13.097656 4.53125 -14.015625 C 5.082031 -14.941406 5.800781 -16.1875 6.6875 -17.75 C 7.570312 -19.320312 8.304688 -20.484375 8.890625 -21.234375 C 9.472656 -21.992188 10.039062 -22.378906 10.59375 -22.390625 C 11.15625 -22.398438 11.644531 -22.175781 12.0625 -21.71875 C 12.476562 -21.257812 12.6875 -20.882812 12.6875 -20.59375 C 12.6875 -20.3125 12.046875 -19.023438 10.765625 -16.734375 C 6.984375 -9.890625 5.09375 -5.90625 5.09375 -4.78125 C 5.09375 -4.5 5.203125 -4.359375 5.421875 -4.359375 C 6.335938 -4.359375 8.617188 -6.34375 12.265625 -10.3125 C 15.910156 -14.28125 18.019531 -16.820312 18.59375 -17.9375 C 19.164062 -19.0625 19.722656 -20.003906 20.265625 -20.765625 C 20.804688 -21.535156 21.210938 -22.003906 21.484375 -22.171875 C 22.304688 -22.703125 23.367188 -22.988281 24.671875 -23.03125 C 24.878906 -23.03125 25.039062 -23.019531 25.15625 -23 C 25.269531 -22.976562 25.398438 -22.816406 25.546875 -22.515625 C 25.703125 -22.210938 25.78125 -21.972656 25.78125 -21.796875 C 25.613281 -21.265625 24.851562 -19.84375 23.5 -17.53125 C 22.15625 -15.21875 21.40625 -13.910156 21.25 -13.609375 C 19 -8.953125 17.875 -5.914062 17.875 -4.5 C 17.875 -3.695312 18.179688 -3.296875 18.796875 -3.296875 C 19.898438 -3.453125 21.234375 -4.335938 22.796875 -5.953125 C 23.367188 -6.546875 23.9375 -7.148438 24.5 -7.765625 C 25.070312 -8.378906 25.421875 -8.738281 25.546875 -8.84375 C 25.679688 -8.945312 25.847656 -9 26.046875 -9 Z M 26.046875 -9 "/></g></g><g style="fill:#2d5894;fill-opacity:1;"><g transform="translate(142.419742, 199.889875)"><path style="stroke:none" d="M 16.734375 -4.40625 C 16.734375 -3.570312 17.304688 -3.15625 18.453125 -3.15625 C 19.054688 -3.15625 19.820312 -3.457031 20.75 -4.0625 C 21.675781 -4.675781 22.515625 -5.347656 23.265625 -6.078125 C 25.242188 -8.046875 26.367188 -9.03125 26.640625 -9.03125 C 27.140625 -9.03125 27.390625 -8.3125 27.390625 -6.875 C 27.390625 -5.445312 26.941406 -4.460938 26.046875 -3.921875 C 23.304688 -1.460938 21.191406 0.0351562 19.703125 0.578125 C 18.867188 0.859375 17.941406 0.988281 16.921875 0.96875 C 15.910156 0.957031 14.910156 0.519531 13.921875 -0.34375 C 12.929688 -1.207031 12.4375 -2.253906 12.4375 -3.484375 C 12.4375 -4.710938 12.757812 -6.109375 13.40625 -7.671875 C 14.050781 -9.242188 14.710938 -10.585938 15.390625 -11.703125 C 16.078125 -12.816406 16.914062 -14.113281 17.90625 -15.59375 C 18.894531 -17.070312 19.421875 -17.992188 19.484375 -18.359375 L 19.421875 -18.421875 C 18.796875 -18.359375 17.234375 -17.113281 14.734375 -14.6875 C 12.242188 -12.269531 10.1875 -10.160156 8.5625 -8.359375 C 6.9375 -6.566406 5 -4.171875 2.75 -1.171875 C 2.125 -0.347656 1.609375 0.0625 1.203125 0.0625 C 0.804688 0.0625 0.269531 -0.0664062 -0.40625 -0.328125 C -1.09375 -0.585938 -1.507812 -0.773438 -1.65625 -0.890625 C -1.8125 -1.003906 -1.890625 -1.175781 -1.890625 -1.40625 C -1.890625 -1.632812 -1.820312 -1.914062 -1.6875 -2.25 C -1.550781 -2.582031 -1.421875 -2.859375 -1.296875 -3.078125 C -1.179688 -3.296875 -0.976562 -3.632812 -0.6875 -4.09375 C -0.40625 -4.550781 0.160156 -5.519531 1.015625 -7 C 1.867188 -8.476562 3.171875 -10.6875 4.921875 -13.625 C 6.679688 -16.570312 7.734375 -18.351562 8.078125 -18.96875 C 8.804688 -20.226562 9.398438 -21.144531 9.859375 -21.71875 C 10.710938 -22.800781 12.160156 -23.34375 14.203125 -23.34375 C 14.660156 -23.34375 14.890625 -23.054688 14.890625 -22.484375 C 14.890625 -21.585938 14.0625 -19.898438 12.40625 -17.421875 L 11.203125 -15.609375 C 14.503906 -19.273438 17.289062 -21.597656 19.5625 -22.578125 C 20.675781 -23.054688 21.675781 -23.296875 22.5625 -23.296875 C 23.445312 -23.296875 24.148438 -23.054688 24.671875 -22.578125 C 25.203125 -22.097656 25.46875 -21.566406 25.46875 -20.984375 C 25.46875 -20.398438 25.265625 -19.703125 24.859375 -18.890625 C 24.460938 -18.078125 24.054688 -17.347656 23.640625 -16.703125 C 23.234375 -16.066406 22.695312 -15.257812 22.03125 -14.28125 C 21.363281 -13.3125 21 -12.785156 20.9375 -12.703125 C 20.882812 -12.617188 20.738281 -12.390625 20.5 -12.015625 C 20.257812 -11.640625 20.082031 -11.363281 19.96875 -11.1875 C 19.851562 -11.019531 19.660156 -10.722656 19.390625 -10.296875 C 19.128906 -9.867188 18.914062 -9.507812 18.75 -9.21875 C 18.582031 -8.9375 18.378906 -8.582031 18.140625 -8.15625 C 17.910156 -7.738281 17.722656 -7.378906 17.578125 -7.078125 C 17.429688 -6.773438 17.28125 -6.441406 17.125 -6.078125 C 16.863281 -5.410156 16.734375 -4.851562 16.734375 -4.40625 Z M 16.734375 -4.40625 "/></g></g><g style="fill:#2d5894;fill-opacity:1;"><g transform="translate(165.338938, 199.889875)"><path style="stroke:none" d="M 37.765625 -42.9375 C 38.117188 -42.9375 38.398438 -42.820312 38.609375 -42.59375 C 38.828125 -42.363281 38.9375 -42.128906 38.9375 -41.890625 C 38.9375 -41.660156 38.75 -41.222656 38.375 -40.578125 C 38 -39.941406 37.144531 -38.546875 35.8125 -36.390625 C 34.476562 -34.242188 33.4375 -32.5625 32.6875 -31.34375 C 28.351562 -24.289062 24.953125 -18.328125 22.484375 -13.453125 C 20.023438 -8.585938 18.796875 -5.648438 18.796875 -4.640625 L 18.796875 -4.40625 C 18.796875 -3.625 19.082031 -3.234375 19.65625 -3.234375 C 20.226562 -3.234375 20.921875 -3.5 21.734375 -4.03125 C 22.546875 -4.570312 23.253906 -5.144531 23.859375 -5.75 C 24.472656 -6.363281 25.085938 -7 25.703125 -7.65625 C 26.328125 -8.320312 26.707031 -8.710938 26.84375 -8.828125 C 26.976562 -8.941406 27.148438 -9 27.359375 -9 C 27.679688 -9 27.890625 -8.789062 27.984375 -8.375 C 28.078125 -7.96875 28.125 -7.394531 28.125 -6.65625 C 28.125 -5.925781 28.066406 -5.445312 27.953125 -5.21875 C 27.398438 -4.144531 26.179688 -2.835938 24.296875 -1.296875 C 22.421875 0.234375 20.644531 1 18.96875 1 C 16.101562 1 14.671875 -0.210938 14.671875 -2.640625 C 14.671875 -4.148438 15.242188 -6.125 16.390625 -8.5625 C 14.835938 -6.5625 13.257812 -4.851562 11.65625 -3.4375 C 8.675781 -0.84375 6.085938 0.453125 3.890625 0.453125 C 2.671875 0.453125 1.769531 0.0234375 1.1875 -0.828125 C 0.601562 -1.691406 0.3125 -2.929688 0.3125 -4.546875 C 0.3125 -6.160156 0.941406 -8.09375 2.203125 -10.34375 C 3.460938 -12.59375 5.03125 -14.617188 6.90625 -16.421875 C 8.789062 -18.234375 10.878906 -19.742188 13.171875 -20.953125 C 15.460938 -22.171875 17.578125 -22.78125 19.515625 -22.78125 C 20.117188 -22.78125 20.832031 -22.40625 21.65625 -21.65625 C 22.207031 -22.53125 23.226562 -24.285156 24.71875 -26.921875 C 29.40625 -34.816406 32.5 -39.632812 34 -41.375 C 34.800781 -42.414062 36.054688 -42.9375 37.765625 -42.9375 Z M 19.90625 -18.96875 C 17.15625 -18.351562 14.597656 -17.070312 12.234375 -15.125 C 9.867188 -13.175781 8.09375 -11.132812 6.90625 -9 C 5.71875 -6.875 5.125 -5.492188 5.125 -4.859375 C 5.125 -4.234375 5.257812 -3.921875 5.53125 -3.921875 C 6.675781 -3.921875 9.507812 -6.484375 14.03125 -11.609375 C 16.289062 -14.128906 18.25 -16.582031 19.90625 -18.96875 Z M 19.90625 -18.96875 "/></g></g><g style="fill:#2d5894;fill-opacity:1;"><g transform="translate(189.490041, 199.889875)"><path style="stroke:none" d="M 11.140625 -15.609375 C 15.648438 -20.734375 19.488281 -23.296875 22.65625 -23.296875 C 23.4375 -23.296875 24.082031 -23.0625 24.59375 -22.59375 C 25.101562 -22.125 25.359375 -21.515625 25.359375 -20.765625 C 25.359375 -20.023438 24.828125 -18.78125 23.765625 -17.03125 C 22.703125 -15.28125 21.722656 -13.804688 20.828125 -12.609375 C 20.347656 -11.992188 19.804688 -11.6875 19.203125 -11.6875 C 18.609375 -11.6875 18.140625 -11.90625 17.796875 -12.34375 C 17.460938 -12.78125 17.296875 -13.296875 17.296875 -13.890625 C 17.296875 -15.210938 18.003906 -16.703125 19.421875 -18.359375 L 19.359375 -18.421875 C 18.734375 -18.359375 17.171875 -17.113281 14.671875 -14.6875 C 12.179688 -12.269531 10.0625 -10.097656 8.3125 -8.171875 C 6.570312 -6.253906 4.679688 -3.921875 2.640625 -1.171875 C 2.046875 -0.347656 1.539062 0.0625 1.125 0.0625 C 0.71875 0.0625 0.175781 -0.0664062 -0.5 -0.328125 C -1.175781 -0.585938 -1.585938 -0.773438 -1.734375 -0.890625 C -1.878906 -1.003906 -1.953125 -1.191406 -1.953125 -1.453125 C -1.953125 -1.722656 -1.875 -2.035156 -1.71875 -2.390625 C -1.5625 -2.742188 -1.28125 -3.242188 -0.875 -3.890625 C -0.46875 -4.546875 0.148438 -5.597656 0.984375 -7.046875 C 1.816406 -8.492188 3.109375 -10.6875 4.859375 -13.625 C 6.617188 -16.570312 7.671875 -18.351562 8.015625 -18.96875 C 8.742188 -20.226562 9.335938 -21.144531 9.796875 -21.71875 C 10.660156 -22.800781 12.113281 -23.34375 14.15625 -23.34375 C 14.613281 -23.34375 14.84375 -23.054688 14.84375 -22.484375 C 14.84375 -21.585938 14.007812 -19.898438 12.34375 -17.421875 Z M 11.140625 -15.609375 "/></g></g><g style="fill:#2d5894;fill-opacity:1;"><g transform="translate(209.974073, 199.889875)"><path style="stroke:none" d="M 10.453125 9.515625 C 10.359375 9.609375 10.066406 10.085938 9.578125 10.953125 C 9.097656 11.828125 8.578125 12.707031 8.015625 13.59375 C 7.460938 14.476562 6.78125 15.320312 5.96875 16.125 C 5.15625 16.925781 4.476562 17.359375 3.9375 17.421875 C 3.394531 17.492188 3.046875 17.53125 2.890625 17.53125 C 1.140625 17.53125 0.265625 16.644531 0.265625 14.875 C 0.265625 12.789062 1.34375 10.351562 3.5 7.5625 C 4.320312 6.507812 5.351562 5.375 6.59375 4.15625 C 7.832031 2.945312 8.507812 2.257812 8.625 2.09375 C 8.738281 1.9375 10.171875 -0.738281 12.921875 -5.9375 C 11.085938 -3.925781 9.382812 -2.296875 7.8125 -1.046875 C 6.25 0.203125 4.742188 0.90625 3.296875 1.0625 L 3.09375 1.0625 C 2.351562 1.0625 1.617188 0.816406 0.890625 0.328125 C 0.160156 -0.160156 -0.203125 -1.015625 -0.203125 -2.234375 C -0.203125 -4.046875 0.285156 -5.800781 1.265625 -7.5 C 1.609375 -8.09375 2.203125 -9.097656 3.046875 -10.515625 C 3.898438 -11.929688 4.691406 -13.296875 5.421875 -14.609375 C 6.109375 -15.660156 6.8125 -16.882812 7.53125 -18.28125 C 8.257812 -19.675781 8.8125 -20.671875 9.1875 -21.265625 C 9.570312 -21.867188 9.9375 -22.171875 10.28125 -22.171875 C 10.625 -22.171875 11.066406 -21.957031 11.609375 -21.53125 C 12.160156 -21.101562 12.4375 -20.59375 12.4375 -20 C 12.4375 -19.40625 11.179688 -16.832031 8.671875 -12.28125 C 6.171875 -7.738281 4.921875 -5.15625 4.921875 -4.53125 C 4.921875 -4.375 5 -4.296875 5.15625 -4.296875 C 5.675781 -4.296875 6.816406 -5.023438 8.578125 -6.484375 C 10.347656 -7.953125 12.300781 -9.832031 14.4375 -12.125 C 16.820312 -14.65625 18.691406 -16.972656 20.046875 -19.078125 C 20.222656 -19.347656 20.363281 -19.550781 20.46875 -19.6875 C 20.570312 -19.832031 20.703125 -20.023438 20.859375 -20.265625 C 21.023438 -20.503906 21.160156 -20.691406 21.265625 -20.828125 C 21.367188 -20.960938 21.492188 -21.117188 21.640625 -21.296875 C 21.785156 -21.484375 21.914062 -21.625 22.03125 -21.71875 C 22.144531 -21.8125 22.269531 -21.90625 22.40625 -22 C 22.613281 -22.1875 22.84375 -22.28125 23.09375 -22.28125 C 23.351562 -22.28125 23.742188 -22.222656 24.265625 -22.109375 C 24.796875 -21.992188 25.113281 -21.867188 25.21875 -21.734375 C 25.320312 -21.609375 25.429688 -21.488281 25.546875 -21.375 C 25.742188 -21.164062 25.84375 -20.96875 25.84375 -20.78125 C 25.84375 -20.601562 25.765625 -20.363281 25.609375 -20.0625 C 25.453125 -19.769531 24.566406 -18.257812 22.953125 -15.53125 C 18.171875 -7.46875 14.882812 -1.582031 13.09375 2.125 C 16 -0.320312 20.085938 -3.941406 25.359375 -8.734375 C 25.566406 -8.910156 25.773438 -9 25.984375 -9 C 26.578125 -9 26.875 -8.09375 26.875 -6.28125 C 26.875 -5.738281 26.773438 -5.382812 26.578125 -5.21875 C 20.867188 -0.820312 15.492188 4.085938 10.453125 9.515625 Z M 10.453125 9.515625 "/></g></g><g style="fill:#2d5894;fill-opacity:1;"><g transform="translate(232.86462, 199.889875)"><path style="stroke:none" d="M 55.890625 -40.875 L 56.265625 -40.875 C 56.378906 -40.875 56.445312 -40.863281 56.46875 -40.84375 C 56.5 -40.832031 56.539062 -40.820312 56.59375 -40.8125 C 56.644531 -40.800781 56.6875 -40.773438 56.71875 -40.734375 C 56.8125 -40.660156 56.945312 -40.578125 57.125 -40.484375 C 57.351562 -40.304688 57.46875 -40.101562 57.46875 -39.875 C 57.46875 -39.644531 57.242188 -39.171875 56.796875 -38.453125 C 56.347656 -37.742188 55.195312 -35.96875 53.34375 -33.125 C 49.0625 -26.570312 45.234375 -20.492188 41.859375 -14.890625 C 36.015625 -5.171875 33.0625 -0.28125 33 -0.21875 C 32.945312 -0.164062 32.910156 -0.113281 32.890625 -0.0625 C 32.867188 0.0507812 32.789062 0.109375 32.65625 0.109375 L 32.265625 0.03125 L 31.484375 0.234375 L 31.03125 0.140625 L 30.546875 0.234375 L 30.375 0.234375 L 28.765625 0.453125 C 27.804688 0.453125 27.328125 0.128906 27.328125 -0.515625 C 27.328125 -0.785156 27.414062 -1.117188 27.59375 -1.515625 C 28.175781 -2.910156 31.15625 -7.984375 36.53125 -16.734375 C 33 -16.640625 29.507812 -16.59375 26.0625 -16.59375 L 19.90625 -16.609375 C 18.894531 -14.992188 17.507812 -12.695312 15.75 -9.71875 C 11.957031 -3.21875 9.9375 0.0625 9.6875 0.125 C 9.4375 0.195312 9.234375 0.234375 9.078125 0.234375 C 8.929688 0.234375 8.789062 0.144531 8.65625 -0.03125 C 8.519531 -0.21875 8.425781 -0.3125 8.375 -0.3125 C 8.332031 -0.3125 8.234375 -0.273438 8.078125 -0.203125 C 7.921875 -0.128906 7.703125 -0.09375 7.421875 -0.09375 L 6.765625 -0.109375 L 6.5 -0.28125 C 6.476562 -0.28125 6.453125 -0.25 6.421875 -0.1875 C 6.398438 -0.132812 6.332031 -0.109375 6.21875 -0.109375 C 5.394531 -0.109375 4.984375 -0.453125 4.984375 -1.140625 C 4.984375 -1.597656 5.144531 -2.195312 5.46875 -2.9375 C 5.789062 -3.6875 6.210938 -4.5 6.734375 -5.375 C 7.265625 -6.257812 8.625 -8.335938 10.8125 -11.609375 C 13 -14.890625 14.09375 -16.539062 14.09375 -16.5625 C 13.726562 -16.582031 13.304688 -16.597656 12.828125 -16.609375 C 11.859375 -16.609375 11.171875 -16.648438 10.765625 -16.734375 C 9.679688 -16.921875 8.9375 -17.816406 8.53125 -19.421875 C 8.320312 -20.203125 8.226562 -20.71875 8.25 -20.96875 C 8.25 -21.488281 8.46875 -21.75 8.90625 -21.75 L 9.65625 -21.546875 C 10.039062 -21.523438 10.957031 -21.472656 12.40625 -21.390625 C 13.851562 -21.316406 14.894531 -21.28125 15.53125 -21.28125 L 17.15625 -21.34375 C 19.644531 -25.238281 22.613281 -29.640625 26.0625 -34.546875 C 23.539062 -32.484375 20.742188 -31.453125 17.671875 -31.453125 C 16.222656 -31.453125 14.972656 -31.800781 13.921875 -32.5 C 12.867188 -33.195312 12.34375 -34.078125 12.34375 -35.140625 C 12.34375 -36.210938 12.742188 -37.0625 13.546875 -37.6875 C 14.347656 -38.3125 15.113281 -38.625 15.84375 -38.625 C 16.570312 -38.625 16.9375 -38.507812 16.9375 -38.28125 C 16.9375 -38.195312 16.832031 -38.109375 16.625 -38.015625 C 16.425781 -37.921875 16.328125 -37.828125 16.328125 -37.734375 C 16.328125 -37.421875 16.660156 -37.144531 17.328125 -36.90625 C 17.992188 -36.675781 18.742188 -36.5625 19.578125 -36.5625 C 20.410156 -36.5625 21.4375 -36.800781 22.65625 -37.28125 C 23.882812 -37.769531 25.15625 -38.394531 26.46875 -39.15625 C 28.300781 -40.226562 29.753906 -41.117188 30.828125 -41.828125 C 31.441406 -42.128906 32.015625 -42.28125 32.546875 -42.28125 C 33.078125 -42.28125 33.460938 -42.21875 33.703125 -42.09375 C 33.941406 -41.96875 34.117188 -41.84375 34.234375 -41.71875 C 34.347656 -41.601562 34.472656 -41.441406 34.609375 -41.234375 C 34.742188 -41.035156 34.875 -40.882812 35 -40.78125 C 35.125 -40.675781 35.1875 -40.554688 35.1875 -40.421875 C 35.1875 -40.285156 35.113281 -40.070312 34.96875 -39.78125 C 34.820312 -39.5 34.085938 -38.34375 32.765625 -36.3125 C 31.453125 -34.28125 29.757812 -31.679688 27.6875 -28.515625 C 25.613281 -25.359375 24.097656 -23.035156 23.140625 -21.546875 C 28.242188 -21.546875 33.753906 -21.640625 39.671875 -21.828125 C 46.878906 -33.191406 50.679688 -39.148438 51.078125 -39.703125 C 51.484375 -40.253906 51.847656 -40.613281 52.171875 -40.78125 C 52.492188 -40.957031 52.894531 -41.046875 53.375 -41.046875 Z M 55.890625 -40.875 "/></g></g><g style="fill:#2d5894;fill-opacity:1;"><g transform="translate(276.869477, 199.889875)"><path style="stroke:none" d="M 26.046875 -9 C 26.398438 -9 26.613281 -8.71875 26.6875 -8.15625 C 26.769531 -7.601562 26.8125 -7.03125 26.8125 -6.4375 C 26.8125 -5.851562 26.753906 -5.445312 26.640625 -5.21875 C 26.085938 -4.144531 24.875 -2.835938 23 -1.296875 C 21.132812 0.234375 19.359375 1 17.671875 1 C 16.640625 1 15.6875 0.6875 14.8125 0.0625 C 13.9375 -0.550781 13.5 -1.628906 13.5 -3.171875 C 13.5 -4.722656 13.90625 -6.242188 14.71875 -7.734375 C 9.988281 -1.796875 6.273438 1.171875 3.578125 1.171875 C 2.515625 1.171875 1.648438 0.785156 0.984375 0.015625 C 0.328125 -0.742188 0 -1.523438 0 -2.328125 C 0 -3.140625 0.113281 -3.976562 0.34375 -4.84375 C 0.570312 -5.71875 0.816406 -6.5 1.078125 -7.1875 C 1.335938 -7.875 1.71875 -8.722656 2.21875 -9.734375 C 2.726562 -10.753906 3.101562 -11.492188 3.34375 -11.953125 C 3.59375 -12.410156 3.988281 -13.097656 4.53125 -14.015625 C 5.082031 -14.941406 5.800781 -16.1875 6.6875 -17.75 C 7.570312 -19.320312 8.304688 -20.484375 8.890625 -21.234375 C 9.472656 -21.992188 10.039062 -22.378906 10.59375 -22.390625 C 11.15625 -22.398438 11.644531 -22.175781 12.0625 -21.71875 C 12.476562 -21.257812 12.6875 -20.882812 12.6875 -20.59375 C 12.6875 -20.3125 12.046875 -19.023438 10.765625 -16.734375 C 6.984375 -9.890625 5.09375 -5.90625 5.09375 -4.78125 C 5.09375 -4.5 5.203125 -4.359375 5.421875 -4.359375 C 6.335938 -4.359375 8.617188 -6.34375 12.265625 -10.3125 C 15.910156 -14.28125 18.019531 -16.820312 18.59375 -17.9375 C 19.164062 -19.0625 19.722656 -20.003906 20.265625 -20.765625 C 20.804688 -21.535156 21.210938 -22.003906 21.484375 -22.171875 C 22.304688 -22.703125 23.367188 -22.988281 24.671875 -23.03125 C 24.878906 -23.03125 25.039062 -23.019531 25.15625 -23 C 25.269531 -22.976562 25.398438 -22.816406 25.546875 -22.515625 C 25.703125 -22.210938 25.78125 -21.972656 25.78125 -21.796875 C 25.613281 -21.265625 24.851562 -19.84375 23.5 -17.53125 C 22.15625 -15.21875 21.40625 -13.910156 21.25 -13.609375 C 19 -8.953125 17.875 -5.914062 17.875 -4.5 C 17.875 -3.695312 18.179688 -3.296875 18.796875 -3.296875 C 19.898438 -3.453125 21.234375 -4.335938 22.796875 -5.953125 C 23.367188 -6.546875 23.9375 -7.148438 24.5 -7.765625 C 25.070312 -8.378906 25.421875 -8.738281 25.546875 -8.84375 C 25.679688 -8.945312 25.847656 -9 26.046875 -9 Z M 26.046875 -9 "/></g></g><g style="fill:#2d5894;fill-opacity:1;"><g transform="translate(300.075163, 199.889875)"><path style="stroke:none" d="M 25.359375 -40.875 C 21.328125 -34.820312 17.398438 -28.492188 13.578125 -21.890625 C 14.453125 -22.347656 15.4375 -22.675781 16.53125 -22.875 C 17.632812 -23.070312 18.410156 -23.171875 18.859375 -23.171875 C 19.304688 -23.171875 19.691406 -23.15625 20.015625 -23.125 C 20.347656 -23.101562 20.765625 -23 21.265625 -22.8125 C 21.773438 -22.632812 22.210938 -22.382812 22.578125 -22.0625 C 23.453125 -21.28125 23.890625 -20.171875 23.890625 -18.734375 C 23.890625 -17.304688 23.503906 -15.734375 22.734375 -14.015625 C 21.960938 -12.304688 20.910156 -10.59375 19.578125 -8.875 C 18.253906 -7.15625 16.800781 -5.554688 15.21875 -4.078125 C 13.644531 -2.597656 11.953125 -1.390625 10.140625 -0.453125 C 8.328125 0.484375 6.640625 0.953125 5.078125 0.953125 C 4.347656 0.953125 3.507812 0.484375 2.5625 -0.453125 C 1.613281 -1.390625 1.140625 -2.625 1.140625 -4.15625 C 1.140625 -5.6875 1.796875 -8.054688 3.109375 -11.265625 C 4.429688 -14.472656 6.035156 -17.734375 7.921875 -21.046875 C 9.804688 -24.359375 11.722656 -27.585938 13.671875 -30.734375 C 15.628906 -33.890625 17.296875 -36.46875 18.671875 -38.46875 C 20.046875 -40.476562 20.882812 -41.632812 21.1875 -41.9375 C 21.5 -42.25 22.0625 -42.507812 22.875 -42.71875 C 23.6875 -42.925781 24.390625 -43.023438 24.984375 -43.015625 C 25.578125 -43.003906 25.875 -42.734375 25.875 -42.203125 C 25.875 -41.859375 25.703125 -41.414062 25.359375 -40.875 Z M 17.625 -13.375 C 18.40625 -14.75 18.796875 -16 18.796875 -17.125 C 18.796875 -18.257812 18.4375 -18.828125 17.71875 -18.828125 C 17 -18.828125 15.898438 -18.515625 14.421875 -17.890625 C 12.941406 -17.265625 12.097656 -16.953125 11.890625 -16.953125 C 11.679688 -16.953125 11.40625 -17.125 11.0625 -17.46875 C 7.332031 -10.769531 5.46875 -6.492188 5.46875 -4.640625 C 5.46875 -3.785156 5.742188 -3.359375 6.296875 -3.359375 C 7.617188 -3.359375 9.519531 -4.457031 12 -6.65625 C 14.488281 -8.863281 16.363281 -11.101562 17.625 -13.375 Z M 17.625 -13.375 "/></g></g></g></svg>